<?xml version="1.0" encoding="utf-8"?>
<COLLADA xmlns="http://www.collada.org/2005/11/COLLADASchema" version="1.4.1" xmlns:xsi="http://www.w3.org/2001/XMLSchema-instance">
  <asset>
    <contributor>
      <author>Blender User</author>
      <authoring_tool>Blender 3.6.4 commit date:2023-09-25, commit time:13:24, hash:21bfc5e7fe3f</authoring_tool>
    </contributor>
    <created>2025-04-03T21:54:10</created>
    <modified>2025-04-03T21:54:10</modified>
    <unit name="meter" meter="1"/>
    <up_axis>Z_UP</up_axis>
  </asset>
  <library_effects>
    <effect id="CDRoundTargetMaterial-effect">
      <profile_COMMON>
        <newparam sid="RoundTarget-surface">
          <surface type="2D">
            <init_from>RoundTarget</init_from>
          </surface>
        </newparam>
        <newparam sid="RoundTarget-sampler">
          <sampler2D>
            <source>RoundTarget-surface</source>
          </sampler2D>
        </newparam>
        <technique sid="common">
          <lambert>
            <emission>
              <color sid="emission">0 0 0 1</color>
            </emission>
            <diffuse>
              <texture texture="RoundTarget-sampler" texcoord="UVMap"/>
            </diffuse>
            <index_of_refraction>
              <float sid="ior">1.45</float>
            </index_of_refraction>
          </lambert>
        </technique>
      </profile_COMMON>
    </effect>
  </library_effects>
  <library_images>
    <image id="RoundTarget" name="RoundTarget">
      <init_from>RoundTarget.png</init_from>
    </image>
  </library_images>
  <library_materials>
    <material id="CDRoundTargetMaterial-material" name="CDRoundTargetMaterial">
      <instance_effect url="#CDRoundTargetMaterial-effect"/>
    </material>
  </library_materials>
  <library_geometries>
    <geometry id="Circle-mesh" name="Circle">
      <mesh>
        <source id="Circle-mesh-positions">
          <float_array id="Circle-mesh-positions-array" count="966">0 1 0 -0.1950903 0.9807853 0 -0.3826835 0.9238795 0 -0.5555703 0.8314696 0 -0.7071068 0.7071068 0 -0.8314696 0.5555703 0 -0.9238795 0.3826835 0 -0.9807853 0.1950903 0 -1 0 0 -0.9807853 -0.1950903 0 -0.9238795 -0.3826835 0 -0.8314696 -0.5555703 0 -0.7071068 -0.7071068 0 -0.5555703 -0.8314696 0 -0.3826835 -0.9238795 0 -0.1950903 -0.9807853 0 0 -1 0 0.1950903 -0.9807853 0 0.3826835 -0.9238795 0 0.5555703 -0.8314696 0 0.7071068 -0.7071068 0 0.8314696 -0.5555703 0 0.9238795 -0.3826835 0 0.9807853 -0.1950903 0 1 0 0 0.9807853 0.1950903 0 0.9238795 0.3826835 0 0.8314696 0.5555703 0 0.7071068 0.7071068 0 0.5555703 0.8314696 0 0.3826835 0.9238795 0 0.1950903 0.9807853 0 0 5 0 -0.9754515 4.903926 0 -1.913417 4.619398 0 -2.777851 4.157348 0 -3.535534 3.535534 0 -4.157348 2.777851 0 -4.619398 1.913417 0 -4.903926 0.9754515 0 -5 0 0 -4.903926 -0.9754517 0 -4.619398 -1.913417 0 -4.157348 -2.777851 0 -3.535534 -3.535534 0 -2.777851 -4.157348 0 -1.913417 -4.619398 0 -0.9754515 -4.903926 0 0 -5 0 0.9754517 -4.903926 0 1.913417 -4.619398 0 2.777851 -4.157348 0 3.535534 -3.535534 0 4.157348 -2.777851 0 4.619398 -1.913417 0 4.903926 -0.9754517 0 5 0 0 4.903926 0.9754515 0 4.619398 1.913417 0 4.157348 2.777851 0 3.535534 3.535534 0 2.777851 4.157348 0 1.913417 4.619398 0 0.9754517 4.903926 0 3 0 0 4 0 0 0 4 0 -0.7803612 3.923141 0 -1.530734 3.695518 0 -2.222281 3.325879 0 -2.828427 2.828427 0 -3.325879 2.222281 0 -3.695518 1.530734 0 -3.923141 0.7803612 0 -4 0 0 -3.923141 -0.7803614 0 -3.695518 -1.530734 0 -3.325879 -2.222281 0 -2.828427 -2.828427 0 -2.222281 -3.325879 0 -1.530734 -3.695518 0 -0.7803612 -3.923141 0 0 -4 0 0.7803614 -3.923141 0 1.530734 -3.695518 0 2.222281 -3.325879 0 2.828427 -2.828427 0 3.325879 -2.222281 0 3.695518 -1.530734 0 3.923141 -0.7803614 0 3.923141 0.7803612 0 3.695518 1.530734 0 3.325879 2.222281 0 2.828427 2.828427 0 2.222281 3.325879 0 1.530734 3.695518 0 0.7803614 3.923141 0 0 3 0 -0.5852709 2.942356 0 -1.14805 2.771639 0 -1.666711 2.494409 0 -2.12132 2.12132 0 -2.494409 1.666711 0 -2.771639 1.14805 0 -2.942356 0.5852709 0 -3 0 0 -2.942356 -0.5852711 0 -2.771639 -1.14805 0 -2.494409 -1.666711 0 -2.12132 -2.12132 0 -1.666711 -2.494409 0 -1.14805 -2.771639 0 -0.5852709 -2.942356 0 0 -3 0 0.585271 -2.942356 0 1.14805 -2.771639 0 1.666711 -2.494409 0 2.12132 -2.12132 0 2.494409 -1.666711 0 2.771639 -1.14805 0 2.942356 -0.5852711 0 2.942356 0.5852709 0 2.771639 1.14805 0 2.494409 1.666711 0 2.12132 2.12132 0 1.666711 2.494409 0 1.14805 2.771639 0 0.585271 2.942356 0 -1.661276 1.110029 0 -1.845911 0.7646015 0 -1.959609 0.3897904 0 -1.998 0 0 0.7646017 -1.845911 0 1.110029 -1.661276 0 1.845911 -0.7646016 0 1.959609 -0.3897906 0 1.998 0 0 1.845911 0.7646015 0 1.661277 1.110029 0 1.412799 1.412799 0 0.3897905 1.959609 0 0 0 0 0 2 0 -0.3901806 1.96157 0 -0.7653669 1.847759 0 -1.11114 1.662939 0 -1.414214 1.414214 0 -1.96157 -0.3901807 0 -1.847759 -0.7653669 0 -1.662939 -1.11114 0 -1.414214 -1.414214 0 -1.11114 -1.662939 0 -0.7653669 -1.847759 0 -0.3901806 -1.96157 0 0 -2 0 0.3901807 -1.96157 0 1.414214 -1.414214 0 1.662939 -1.11114 0 1.96157 0.3901807 0 1.11114 1.662939 0 0.7653669 1.847759 0 0 1 1 -0.1950903 0.9807853 1 -0.3826835 0.9238795 1 -0.5555703 0.8314696 1 -0.7071068 0.7071068 1 -0.8314696 0.5555703 1 -0.9238795 0.3826835 1 -0.9807853 0.1950903 1 -1 0 1 -0.9807853 -0.1950903 1 -0.9238795 -0.3826835 1 -0.8314696 -0.5555703 1 -0.7071068 -0.7071068 1 -0.5555703 -0.8314696 1 -0.3826835 -0.9238795 1 -0.1950903 -0.9807853 1 0 -1 1 0.1950903 -0.9807853 1 0.3826835 -0.9238795 1 0.5555703 -0.8314696 1 0.7071068 -0.7071068 1 0.8314696 -0.5555703 1 0.9238795 -0.3826835 1 0.9807853 -0.1950903 1 1 0 1 0.9807853 0.1950903 1 0.9238795 0.3826835 1 0.8314696 0.5555703 1 0.7071068 0.7071068 1 0.5555703 0.8314696 1 0.3826835 0.9238795 1 0.1950903 0.9807853 1 0 5 1 -0.9754515 4.903926 1 -1.913417 4.619398 1 -2.777851 4.157348 1 -3.535534 3.535534 1 -4.157348 2.777851 1 -4.619398 1.913417 1 -4.903926 0.9754515 1 -5 0 1 -4.903926 -0.9754517 1 -4.619398 -1.913417 1 -4.157348 -2.777851 1 -3.535534 -3.535534 1 -2.777851 -4.157348 1 -1.913417 -4.619398 1 -0.9754515 -4.903926 1 0 -5 1 0.9754517 -4.903926 1 1.913417 -4.619398 1 2.777851 -4.157348 1 3.535534 -3.535534 1 4.157348 -2.777851 1 4.619398 -1.913417 1 4.903926 -0.9754517 1 5 0 1 4.903926 0.9754515 1 4.619398 1.913417 1 4.157348 2.777851 1 3.535534 3.535534 1 2.777851 4.157348 1 1.913417 4.619398 1 0.9754517 4.903926 1 3 0 1 4 0 1 0 4 1 -0.7803612 3.923141 1 -1.530734 3.695518 1 -2.222281 3.325879 1 -2.828427 2.828427 1 -3.325879 2.222281 1 -3.695518 1.530734 1 -3.923141 0.7803612 1 -4 0 1 -3.923141 -0.7803614 1 -3.695518 -1.530734 1 -3.325879 -2.222281 1 -2.828427 -2.828427 1 -2.222281 -3.325879 1 -1.530734 -3.695518 1 -0.7803612 -3.923141 1 0 -4 1 0.7803614 -3.923141 1 1.530734 -3.695518 1 2.222281 -3.325879 1 2.828427 -2.828427 1 3.325879 -2.222281 1 3.695518 -1.530734 1 3.923141 -0.7803614 1 3.923141 0.7803612 1 3.695518 1.530734 1 3.325879 2.222281 1 2.828427 2.828427 1 2.222281 3.325879 1 1.530734 3.695518 1 0.7803614 3.923141 1 0 3 1 -0.5852709 2.942356 1 -1.14805 2.771639 1 -1.666711 2.494409 1 -2.12132 2.12132 1 -2.494409 1.666711 1 -2.771639 1.14805 1 -2.942356 0.5852709 1 -3 0 1 -2.942356 -0.5852711 1 -2.771639 -1.14805 1 -2.494409 -1.666711 1 -2.12132 -2.12132 1 -1.666711 -2.494409 1 -1.14805 -2.771639 1 -0.5852709 -2.942356 1 0 -3 1 0.585271 -2.942356 1 1.14805 -2.771639 1 1.666711 -2.494409 1 2.12132 -2.12132 1 2.494409 -1.666711 1 2.771639 -1.14805 1 2.942356 -0.5852711 1 2.942356 0.5852709 1 2.771639 1.14805 1 2.494409 1.666711 1 2.12132 2.12132 1 1.666711 2.494409 1 1.14805 2.771639 1 0.585271 2.942356 1 -1.661276 1.110029 1 -1.845911 0.7646015 1 -1.959609 0.3897904 1 -1.998 0 1 0.7646017 -1.845911 1 1.110029 -1.661276 1 1.845911 -0.7646016 1 1.959609 -0.3897906 1 1.998 0 1 1.845911 0.7646015 1 1.661277 1.110029 1 1.412799 1.412799 1 0.3897905 1.959609 1 0 0 1 0 2 1 -0.3901806 1.96157 1 -0.7653669 1.847759 1 -1.11114 1.662939 1 -1.414214 1.414214 1 -1.96157 -0.3901807 1 -1.847759 -0.7653669 1 -1.662939 -1.11114 1 -1.414214 -1.414214 1 -1.11114 -1.662939 1 -0.7653669 -1.847759 1 -0.3901806 -1.96157 1 0 -2 1 0.3901807 -1.96157 1 1.414214 -1.414214 1 1.662939 -1.11114 1 1.96157 0.3901807 1 1.11114 1.662939 1 0.7653669 1.847759 1</float_array>
          <technique_common>
            <accessor source="#Circle-mesh-positions-array" count="322" stride="3">
              <param name="X" type="float"/>
              <param name="Y" type="float"/>
              <param name="Z" type="float"/>
            </accessor>
          </technique_common>
        </source>
        <source id="Circle-mesh-normals">
          <float_array id="Circle-mesh-normals-array" count="228">0 0 -1 0 0 1 0 0 1 0 0 1 0 0 1 0 0 1 0 0 1 0 0 1 0 0 1 0 0 1 0 0 1 0 0 1 0 0 1 0 0 1 0 0 1 0 0 1 0 0 1 0 0 1 0 0 1 0 0 1 0 0 1 0 0 1 0 0 1 0 0 1 0 0 1 0 0 1 1.62635e-7 0 1 0 0 1 0 0 1 0 0 1 0 0 1 0 0 1 0 0 1 0 0 1 0.9238796 0.3826834 0 0.9807853 0.1950905 0 -0.5555703 -0.8314696 0 -0.7071068 -0.7071068 0 0.8314696 0.5555703 0 -0.3826834 -0.9238796 0 -0.1950903 0.9807853 0 0 1 0 0.7071068 0.7071068 0 -0.1950903 -0.9807853 0 -0.3826834 0.9238796 0 0.5555703 0.8314696 0 0 -1 0 -0.5555703 0.8314696 0 0.3826834 0.9238796 0 0.3826835 0.9238796 0 0.1950903 -0.9807853 0 -0.7071068 0.7071068 0 0.1950903 0.9807853 0 0.3826835 -0.9238796 0 0.3826834 -0.9238796 0 -0.8314696 0.5555703 0 0.5555703 -0.8314696 0 -0.9238796 0.3826834 0 0.7071068 -0.7071068 0 -0.9807853 0.1950905 0 -0.9807853 0.1950903 0 0.8314696 -0.5555703 0 -1 2.47839e-7 0 -1 -2.33541e-7 0 0.9238796 -0.3826834 0 0.9238796 -0.3826835 0 -0.9807853 -0.1950903 0 -0.9807853 -0.1950905 0 0.9807853 -0.1950905 0 0.9807853 -0.1950903 0 -0.9238796 -0.3826835 0 -0.9238796 -0.3826834 0 1 -2.33541e-7 0 1 2.47839e-7 0 -0.8314696 -0.5555703 0 0.9807853 0.1950903 0</float_array>
          <technique_common>
            <accessor source="#Circle-mesh-normals-array" count="76" stride="3">
              <param name="X" type="float"/>
              <param name="Y" type="float"/>
              <param name="Z" type="float"/>
            </accessor>
          </technique_common>
        </source>
        <source id="Circle-mesh-map-0">
          <float_array id="Circle-mesh-map-0-array" count="3840">0.4441877 0.09063428 0.4272377 0.1552644 0.4053502 0.1225074 0.4903926 0.3229224 0.4272377 0.3447356 0.4423141 0.3083379 0 0.2746228 0.05768585 0.3083378 0.009607315 0.3229223 0.4441877 0.09063428 0.3774926 0.09464985 0.4093657 0.05581229 0.5 0.2746229 0.4423141 0.3083379 0.45 0.2696983 0.02845281 0.3684194 0.05768585 0.3083378 0.07276225 0.3447355 0.3684194 0.02845287 0.3774926 0.09464985 0.3447355 0.07276231 0.05581223 0.4093657 0.07276225 0.3447355 0.09464979 0.3774926 0.3229223 0.009607315 0.3447355 0.07276231 0.3083379 0.05768585 0.05581223 0.4093657 0.1225074 0.4053502 0.09063422 0.4441877 0.3229223 0.009607315 0.2696983 0.04999995 0.2746229 0 0.09063422 0.4441877 0.1552644 0.4272377 0.1315805 0.4715471 0.2746229 0 0.2303017 0.04999995 0.2253772 0 0.1770776 0.4903926 0.1552644 0.4272377 0.1916621 0.4423141 0.2253772 0 0.1916621 0.05768585 0.1770777 0.009607315 0.1916621 0.4423141 0.2253771 0.5 0.1770776 0.4903926 0.1315806 0.02845281 0.1916621 0.05768585 0.1552644 0.07276225 0.2303016 0.45 0.2062466 0.3942356 0.2352262 0.4 0.09063428 0.05581229 0.1552644 0.07276225 0.1225074 0.09464985 0.2746228 0.5 0.3083378 0.4423141 0.3229223 0.4903926 0.09063428 0.05581229 0.09464985 0.1225074 0.05581229 0.09063422 0.3229223 0.4903926 0.3447355 0.4272377 0.3684194 0.4715471 0.05581229 0.09063422 0.07276225 0.1552644 0.02845287 0.1315805 0.5 0.2746229 0.45 0.2303017 0.5 0.2253772 0.4093657 0.4441877 0.3447355 0.4272377 0.3774926 0.4053502 0.009607315 0.1770777 0.07276225 0.1552644 0.05768585 0.1916621 0.5 0.2253772 0.4423141 0.1916621 0.4903926 0.1770777 0.4093657 0.4441877 0.4053501 0.3774926 0.4441877 0.4093657 0.009607315 0.1770777 0.04999995 0.2303017 0 0.2253771 0.4715471 0.1315806 0.4423141 0.1916621 0.4272377 0.1552644 0.4441877 0.4093657 0.4272377 0.3447356 0.4715471 0.3684194 0 0.2253771 0.04999995 0.2696983 0 0.2746228 0.04999995 0.2303017 0.1057644 0.2062466 0.09999996 0.2352262 0.4423141 0.1916621 0.3829283 0.1789484 0.4272377 0.1552644 0.4272377 0.3447356 0.3665126 0.3456194 0.3829283 0.3210517 0.04999995 0.2303017 0.09999996 0.2647737 0.04999995 0.2696983 0.4053502 0.1225074 0.3829283 0.1789484 0.3665126 0.1543806 0.4423141 0.3083379 0.3829283 0.3210517 0.3942356 0.2937534 0.04999995 0.2696983 0.1057644 0.2937534 0.05768585 0.3083378 0.4053502 0.1225074 0.3456194 0.1334874 0.3774926 0.09464985 0.45 0.2696983 0.3942356 0.2937534 0.4 0.2647737 0.05768585 0.3083378 0.1170716 0.3210516 0.07276225 0.3447355 0.3447355 0.07276231 0.3456194 0.1334874 0.3210517 0.1170717 0.09464979 0.3774926 0.1170716 0.3210516 0.1334874 0.3456194 0.3083379 0.05768585 0.3210517 0.1170717 0.2937534 0.1057644 0.09464979 0.3774926 0.1543805 0.3665126 0.1225074 0.4053502 0.2696983 0.04999995 0.2937534 0.1057644 0.2647737 0.1 0.1552644 0.4272377 0.1543805 0.3665126 0.1789483 0.3829283 0.2696983 0.04999995 0.2352263 0.09999996 0.2303017 0.04999995 0.1552644 0.4272377 0.2062466 0.3942356 0.1916621 0.4423141 0.2303017 0.04999995 0.2062466 0.1057644 0.1916621 0.05768585 0.2208602 0.3460609 0.2352262 0.4 0.2062466 0.3942356 0.1916621 0.05768585 0.1789484 0.1170717 0.1552644 0.07276225 0.1225074 0.09464985 0.1789484 0.1170717 0.1543806 0.1334874 0.2696982 0.45 0.2937533 0.3942356 0.3083378 0.4423141 0.1225074 0.09464985 0.1334874 0.1543805 0.09464985 0.1225074 0.3083378 0.4423141 0.3210516 0.3829283 0.3447355 0.4272377 0.07276225 0.1552644 0.1334874 0.1543805 0.1170717 0.1789483 0.45 0.2696983 0.4 0.2352263 0.45 0.2303017 0.3774926 0.4053502 0.3210516 0.3829283 0.3456194 0.3665126 0.05768585 0.1916621 0.1170717 0.1789483 0.1057644 0.2062466 0.45 0.2303017 0.3942356 0.2062466 0.4423141 0.1916621 0.3774926 0.4053502 0.3665126 0.3456194 0.4053501 0.3774926 0.1057644 0.2937534 0.1614697 0.2973204 0.1170716 0.3210516 0.3210517 0.1170717 0.3136825 0.1724026 0.2973204 0.1614698 0.1170716 0.3210516 0.1723249 0.3137463 0.1334874 0.3456194 0.2937534 0.1057644 0.2973204 0.1614698 0.2791398 0.1539391 0.1334874 0.3456194 0.1862537 0.3276751 0.1543805 0.3665126 0.2647737 0.1 0.2791398 0.1539391 0.2598393 0.1501 0.1789483 0.3829283 0.1862537 0.3276751 0.2026795 0.3385303 0.2647737 0.1 0.2401508 0.15 0.2352263 0.09999996 0.2062466 0.3942356 0.2026795 0.3385303 0.2208602 0.3460609 0.2352263 0.09999996 0.220831 0.1538429 0.2062466 0.1057644 0.2062466 0.1057644 0.2026322 0.1613811 0.1789484 0.1170717 0.1543806 0.1334874 0.2026322 0.1613811 0.1862537 0.1723249 0.2937533 0.3942356 0.2598491 0.35 0.2791397 0.3460609 0.1543806 0.1334874 0.1723249 0.1862537 0.1334874 0.1543805 0.2937533 0.3942356 0.2973204 0.3385303 0.3210516 0.3829283 0.1170717 0.1789483 0.1723249 0.1862537 0.1613811 0.2026322 0.4 0.2352263 0.35 0.2598491 0.35 0.2401508 0.3456194 0.3665126 0.2973204 0.3385303 0.3136825 0.3275974 0.1057644 0.2062466 0.1613811 0.2026322 0.1538429 0.220831 0.4 0.2352263 0.346157 0.220831 0.3942356 0.2062466 0.3456194 0.3665126 0.3276751 0.3137463 0.3665126 0.3456194 0.1057644 0.2062466 0.15 0.2401508 0.09999996 0.2352262 0.3942356 0.2062466 0.3386188 0.2026322 0.3829283 0.1789484 0.3829283 0.3210517 0.3276751 0.3137463 0.3386188 0.2973678 0.09999996 0.2352262 0.15 0.2598491 0.09999996 0.2647737 0.3665126 0.1543806 0.3386188 0.2026322 0.3276751 0.1862537 0.3942356 0.2937534 0.3386188 0.2973678 0.3460609 0.2791398 0.1057644 0.2937534 0.15 0.2598491 0.1539391 0.2791398 0.3456194 0.1334874 0.3276751 0.1862537 0.3136825 0.1724026 0.3942356 0.2937534 0.35 0.2598491 0.4 0.2647737 0.2354155 0.2980785 0.2263161 0.2943094 0.25 0.25 0.2354155 0.2019215 0.2450754 0.2 0.25 0.25 0.2549245 0.3 0.2450754 0.3 0.25 0.25 0.2263161 0.2056906 0.2354155 0.2019215 0.25 0.25 0.2645844 0.2980785 0.2549245 0.3 0.25 0.25 0.2181268 0.2111625 0.2263161 0.2056906 0.25 0.25 0.2736839 0.2943094 0.2645844 0.2980785 0.25 0.25 0.2111625 0.2181268 0.2181268 0.2111625 0.25 0.25 0.2818731 0.2888376 0.2736839 0.2943094 0.25 0.25 0.2056905 0.2263161 0.2111625 0.2181268 0.25 0.25 0.3 0.2450754 0.3 0.2549245 0.25 0.25 0.2888375 0.2818731 0.2818731 0.2888376 0.25 0.25 0.2354155 0.2980785 0.25 0.25 0.2450754 0.3 0.2019214 0.2354155 0.2056905 0.2263161 0.25 0.25 0.2980785 0.2354155 0.3 0.2450754 0.25 0.25 0.2943094 0.2736839 0.2888375 0.2818731 0.25 0.25 0.1999999 0.2450754 0.2019214 0.2354155 0.25 0.25 0.2943094 0.2263161 0.2980785 0.2354155 0.25 0.25 0.2980785 0.2645845 0.2943094 0.2736839 0.25 0.25 0.1999999 0.2549245 0.1999999 0.2450754 0.25 0.25 0.2888375 0.2181268 0.2943094 0.2263161 0.25 0.25 0.3 0.2549245 0.2980785 0.2645845 0.25 0.25 0.2019214 0.2645844 0.1999999 0.2549245 0.25 0.25 0.2818731 0.2111625 0.2888375 0.2181268 0.25 0.25 0.2056905 0.2736839 0.2019214 0.2645844 0.25 0.25 0.2736839 0.2056906 0.2818731 0.2111625 0.25 0.25 0.2111624 0.2818731 0.2056905 0.2736839 0.25 0.25 0.2645844 0.2019215 0.2736839 0.2056906 0.25 0.25 0.2181268 0.2888375 0.2111624 0.2818731 0.25 0.25 0.2549245 0.2 0.2645844 0.2019215 0.25 0.25 0.2263161 0.2943094 0.2181268 0.2888375 0.25 0.25 0.2450754 0.2 0.2549245 0.2 0.25 0.25 0.2598491 0.35 0.2352262 0.4 0.2401607 0.3499 0.2303016 0.45 0.2647737 0.4 0.2696982 0.45 0.2303016 0.45 0.2746228 0.5 0.2253771 0.5 0.2736839 0.2056906 0.3136825 0.1724026 0.2818731 0.2111625 0.2111624 0.2818731 0.1614697 0.2973204 0.2056905 0.2736839 0.2645844 0.2019215 0.2973204 0.1614698 0.2736839 0.2056906 0.2181268 0.2888375 0.1723249 0.3137463 0.2111624 0.2818731 0.2549245 0.2 0.2791398 0.1539391 0.2645844 0.2019215 0.2181268 0.2888375 0.2026795 0.3385303 0.1862537 0.3276751 0.2450754 0.2 0.2598393 0.1501 0.2549245 0.2 0.2263161 0.2943094 0.2208602 0.3460609 0.2026795 0.3385303 0.2354155 0.2019215 0.2401508 0.15 0.2450754 0.2 0.2549245 0.3 0.2401607 0.3499 0.2450754 0.3 0.2354155 0.2019215 0.2026322 0.1613811 0.220831 0.1538429 0.2549245 0.3 0.2791397 0.3460609 0.2598491 0.35 0.2263161 0.2056906 0.1862537 0.1723249 0.2026322 0.1613811 0.2736839 0.2943094 0.2791397 0.3460609 0.2645844 0.2980785 0.2111625 0.2181268 0.1862537 0.1723249 0.2181268 0.2111625 0.2736839 0.2943094 0.3136825 0.3275974 0.2973204 0.3385303 0.2056905 0.2263161 0.1723249 0.1862537 0.2111625 0.2181268 0.3 0.2549245 0.35 0.2401508 0.35 0.2598491 0.2888375 0.2818731 0.3136825 0.3275974 0.2818731 0.2888376 0.2401607 0.3499 0.2354155 0.2980785 0.2450754 0.3 0.2019214 0.2354155 0.1613811 0.2026322 0.2056905 0.2263161 0.2980785 0.2354155 0.35 0.2401508 0.3 0.2450754 0.2943094 0.2736839 0.3276751 0.3137463 0.2888375 0.2818731 0.1999999 0.2450754 0.1538429 0.220831 0.2019214 0.2354155 0.2980785 0.2354155 0.3386188 0.2026322 0.346157 0.220831 0.2943094 0.2736839 0.3460609 0.2791398 0.3386188 0.2973678 0.1999999 0.2450754 0.15 0.2598491 0.15 0.2401508 0.2943094 0.2263161 0.3276751 0.1862537 0.3386188 0.2026322 0.3 0.2549245 0.3460609 0.2791398 0.2980785 0.2645845 0.1999999 0.2549245 0.1539391 0.2791398 0.15 0.2598491 0.2888375 0.2181268 0.3136825 0.1724026 0.3276751 0.1862537 0.2056905 0.2736839 0.1539391 0.2791398 0.2019214 0.2645844 0.4093657 0.9441877 0.4053502 0.8774926 0.4441877 0.9093658 0.5 0.7253772 0.4423141 0.6916622 0.4903926 0.6770777 0.07276225 0.6552644 0.009607315 0.6770777 0.02845287 0.6315806 0.3447355 0.9272378 0.4093657 0.9441877 0.3684194 0.9715472 0.5 0.7746229 0.45 0.7303017 0.5 0.7253772 0.05581229 0.5906343 0.07276225 0.6552644 0.02845287 0.6315806 0.3229223 0.9903927 0.3447355 0.9272378 0.3684194 0.9715472 0.09063428 0.5558123 0.09464985 0.6225075 0.05581229 0.5906343 0.2746228 1 0.3083378 0.9423142 0.3229223 0.9903927 0.1552644 0.5727623 0.09063428 0.5558123 0.1315806 0.5284529 0.2303017 0.9500001 0.2746228 1 0.2253771 1 0.1916621 0.5576859 0.1315806 0.5284529 0.1770777 0.5096074 0.1916621 0.9423142 0.2253771 1 0.1770776 0.9903927 0.2253772 0.5 0.1916621 0.5576859 0.1770777 0.5096074 0.1552644 0.9272378 0.1770776 0.9903927 0.1315805 0.9715471 0.2746229 0.5 0.2303017 0.55 0.2253772 0.5 0.09063422 0.9441877 0.1552644 0.9272378 0.1315805 0.9715471 0.2696983 0.55 0.2352263 0.6 0.2303017 0.55 0.05581229 0.9093657 0.1225074 0.9053502 0.09063422 0.9441877 0.3447356 0.5727623 0.3229223 0.5096074 0.3684194 0.5284529 0.07276225 0.8447355 0.05581229 0.9093657 0.02845281 0.8684194 0.3774926 0.5946499 0.3684194 0.5284529 0.4093657 0.5558124 0.05768585 0.8083379 0.02845281 0.8684194 0.009607315 0.8229223 0.4423141 0.8083379 0.5 0.7746229 0.4903926 0.8229224 0.4441877 0.5906344 0.3774926 0.5946499 0.4093657 0.5558124 0 0.7746229 0.05768585 0.8083379 0.009607315 0.8229223 0.4272377 0.8447356 0.4903926 0.8229224 0.4715471 0.8684195 0.4272377 0.6552645 0.4441877 0.5906344 0.4715471 0.6315807 0.04999995 0.7303017 0 0.7746229 0 0.7253772 0.4441877 0.9093658 0.4272377 0.8447356 0.4715471 0.8684195 0.4423141 0.6916622 0.4715471 0.6315807 0.4903926 0.6770777 0.05768585 0.6916621 0 0.7253772 0.009607315 0.6770777 0.04999995 0.7303017 0.09999996 0.7647737 0.04999995 0.7696983 0.3665126 0.8456194 0.4272377 0.8447356 0.4053502 0.8774926 0.4423141 0.6916622 0.3829283 0.6789484 0.4272377 0.6552645 0.1057644 0.7062466 0.04999995 0.7303017 0.05768585 0.6916621 0.3774926 0.9053502 0.3665126 0.8456194 0.4053502 0.8774926 0.45 0.7303017 0.3942356 0.7062466 0.4423141 0.6916622 0.1170717 0.6789484 0.05768585 0.6916621 0.07276225 0.6552644 0.3210516 0.8829283 0.3774926 0.9053502 0.3447355 0.9272378 0.45 0.7696983 0.4 0.7352263 0.45 0.7303017 0.1334874 0.6543806 0.07276225 0.6552644 0.09464985 0.6225075 0.3083378 0.9423142 0.3210516 0.8829283 0.3447355 0.9272378 0.1225074 0.5946499 0.1334874 0.6543806 0.09464985 0.6225075 0.2696983 0.9500001 0.2937534 0.8942356 0.3083378 0.9423142 0.1789484 0.6170718 0.1225074 0.5946499 0.1552644 0.5727623 0.2303017 0.9500001 0.2647737 0.9 0.2696983 0.9500001 0.1916621 0.5576859 0.1789484 0.6170718 0.1552644 0.5727623 0.2062466 0.8942356 0.2303017 0.9500001 0.1916621 0.9423142 0.2352263 0.6 0.1916621 0.5576859 0.2303017 0.55 0.1789483 0.8829283 0.1916621 0.9423142 0.1552644 0.9272378 0.2401607 0.6501 0.2647737 0.6 0.2598393 0.6501 0.1543805 0.8665127 0.1552644 0.9272378 0.1225074 0.9053502 0.09464979 0.8774926 0.1543805 0.8665127 0.1225074 0.9053502 0.3210517 0.6170718 0.3083379 0.5576859 0.3447356 0.5727623 0.1170717 0.8210517 0.09464979 0.8774926 0.07276225 0.8447355 0.3456194 0.6334874 0.3447356 0.5727623 0.3774926 0.5946499 0.05768585 0.8083379 0.1170717 0.8210517 0.07276225 0.8447355 0.3942356 0.7937535 0.45 0.7696983 0.4423141 0.8083379 0.4053502 0.6225075 0.3456194 0.6334874 0.3774926 0.5946499 0.04999995 0.7696983 0.1057644 0.7937534 0.05768585 0.8083379 0.3829283 0.8210517 0.4423141 0.8083379 0.4272377 0.8447356 0.3829283 0.6789484 0.4053502 0.6225075 0.4272377 0.6552645 0.1724026 0.6863175 0.1170717 0.6789484 0.1334874 0.6543806 0.2937534 0.8942356 0.2973204 0.8385303 0.3210516 0.8829283 0.1862537 0.672325 0.1334874 0.6543806 0.1543806 0.6334874 0.2647737 0.9 0.2791398 0.8460609 0.2937534 0.8942356 0.2026322 0.6613812 0.1543806 0.6334874 0.1789484 0.6170718 0.2352262 0.9 0.2598392 0.8499 0.2647737 0.9 0.2062466 0.6057645 0.2026322 0.6613812 0.1789484 0.6170718 0.220831 0.8461571 0.2352262 0.9 0.2062466 0.8942356 0.2352263 0.6 0.2208603 0.6539391 0.2062466 0.6057645 0.2026322 0.8386189 0.2062466 0.8942356 0.1789483 0.8829283 0.1862537 0.8276751 0.1789483 0.8829283 0.1543805 0.8665127 0.1334874 0.8456194 0.1862537 0.8276751 0.1543805 0.8665127 0.3210517 0.6170718 0.2791689 0.653843 0.2937534 0.6057645 0.1613811 0.7973678 0.1334874 0.8456194 0.1170717 0.8210517 0.3136826 0.6724026 0.3210517 0.6170718 0.3456194 0.6334874 0.1057644 0.7937534 0.1613811 0.7973678 0.1170717 0.8210517 0.3942356 0.7937535 0.35 0.7598492 0.4 0.7647737 0.3665126 0.6543806 0.3136826 0.6724026 0.3456194 0.6334874 0.09999996 0.7647737 0.1538429 0.779169 0.1057644 0.7937534 0.3386188 0.7973678 0.3942356 0.7937535 0.3829283 0.8210517 0.3386188 0.7026323 0.3665126 0.6543806 0.3829283 0.6789484 0.15 0.7401509 0.09999996 0.7647737 0.09999996 0.7352263 0.3276751 0.8137463 0.3829283 0.8210517 0.3665126 0.8456194 0.3942356 0.7062466 0.3386188 0.7026323 0.3829283 0.6789484 0.1538429 0.7208311 0.09999996 0.7352263 0.1057644 0.7062466 0.3456194 0.8665127 0.3276751 0.8137463 0.3665126 0.8456194 0.4 0.7352263 0.346157 0.7208311 0.3942356 0.7062466 0.1170717 0.6789484 0.1538429 0.7208311 0.1057644 0.7062466 0.3210516 0.8829283 0.3137463 0.8276751 0.3456194 0.8665127 0.35 0.7598492 0.4 0.7352263 0.4 0.7647737 0.2450754 0.7000001 0.25 0.75 0.2354155 0.7019215 0.2263161 0.7943094 0.25 0.75 0.2354155 0.7980785 0.2645845 0.7019215 0.25 0.75 0.2549245 0.7000001 0.2181268 0.7888376 0.25 0.75 0.2263161 0.7943094 0.2736839 0.7056906 0.25 0.75 0.2645845 0.7019215 0.2111625 0.7818732 0.25 0.75 0.2181268 0.7888376 0.2818731 0.7111625 0.25 0.75 0.2736839 0.7056906 0.2056906 0.7736839 0.25 0.75 0.2111625 0.7818732 0.2888376 0.7181269 0.25 0.75 0.2818731 0.7111625 0.2019214 0.7645845 0.25 0.75 0.2056906 0.7736839 0.2980785 0.7645845 0.25 0.75 0.3 0.7549246 0.2943094 0.7263162 0.25 0.75 0.2888376 0.7181269 0.2450754 0.7000001 0.2549245 0.7000001 0.25 0.75 0.2 0.7549246 0.25 0.75 0.2019214 0.7645845 0.2943094 0.7736839 0.25 0.75 0.2980785 0.7645845 0.2980785 0.7354156 0.25 0.75 0.2943094 0.7263162 0.2 0.7450755 0.25 0.75 0.2 0.7549246 0.2888375 0.7818732 0.25 0.75 0.2943094 0.7736839 0.3 0.7450755 0.25 0.75 0.2980785 0.7354156 0.2019215 0.7354156 0.25 0.75 0.2 0.7450755 0.2818731 0.7888376 0.25 0.75 0.2888375 0.7818732 0.3 0.7549246 0.25 0.75 0.3 0.7450755 0.2056906 0.7263162 0.25 0.75 0.2019215 0.7354156 0.2736839 0.7943094 0.25 0.75 0.2818731 0.7888376 0.2111625 0.7181269 0.25 0.75 0.2056906 0.7263162 0.2645844 0.7980785 0.25 0.75 0.2736839 0.7943094 0.2181268 0.7111625 0.25 0.75 0.2111625 0.7181269 0.2549245 0.8 0.25 0.75 0.2645844 0.7980785 0.2263161 0.7056906 0.25 0.75 0.2181268 0.7111625 0.2450754 0.8 0.25 0.75 0.2549245 0.8 0.2354155 0.7019215 0.25 0.75 0.2263161 0.7056906 0.2354155 0.7980785 0.25 0.75 0.2450754 0.8 0.2647737 0.6 0.2791689 0.653843 0.2598393 0.6501 0.2696983 0.55 0.2937534 0.6057645 0.2647737 0.6 0.3229223 0.5096074 0.2696983 0.55 0.2746229 0.5 0.2973204 0.8385303 0.2645844 0.7980785 0.2736839 0.7943094 0.1724026 0.6863175 0.2181268 0.7111625 0.2111625 0.7181269 0.2791398 0.8460609 0.2549245 0.8 0.2645844 0.7980785 0.1862537 0.672325 0.2263161 0.7056906 0.2181268 0.7111625 0.2598392 0.8499 0.2450754 0.8 0.2549245 0.8 0.2263161 0.7056906 0.2208603 0.6539391 0.2354155 0.7019215 0.2401607 0.8499 0.2354155 0.7980785 0.2450754 0.8 0.2354155 0.7019215 0.2401607 0.6501 0.2450754 0.7000001 0.220831 0.8461571 0.2263161 0.7943094 0.2354155 0.7980785 0.2598393 0.6501 0.2645845 0.7019215 0.2549245 0.7000001 0.2263161 0.7943094 0.1862537 0.8276751 0.2181268 0.7888376 0.2645845 0.7019215 0.2973204 0.6614698 0.2736839 0.7056906 0.2181268 0.7888376 0.1723249 0.8137463 0.2111625 0.7818732 0.2973204 0.6614698 0.2818731 0.7111625 0.2736839 0.7056906 0.1723249 0.8137463 0.2056906 0.7736839 0.2111625 0.7818732 0.2818731 0.7111625 0.3275974 0.6863175 0.2888376 0.7181269 0.1613811 0.7973678 0.2019214 0.7645845 0.2056906 0.7736839 0.3 0.7549246 0.346157 0.779169 0.2980785 0.7645845 0.3275974 0.6863175 0.2943094 0.7263162 0.2888376 0.7181269 0.2450754 0.7000001 0.2598393 0.6501 0.2549245 0.7000001 0.1538429 0.779169 0.2 0.7549246 0.2019214 0.7645845 0.346157 0.779169 0.2943094 0.7736839 0.2980785 0.7645845 0.3386188 0.7026323 0.2980785 0.7354156 0.2943094 0.7263162 0.15 0.7598491 0.2 0.7450755 0.2 0.7549246 0.2943094 0.7736839 0.3276751 0.8137463 0.2888375 0.7818732 0.2980785 0.7354156 0.3499 0.7401608 0.3 0.7450755 0.2 0.7450755 0.1538429 0.7208311 0.2019215 0.7354156 0.2888375 0.7818732 0.3137463 0.8276751 0.2818731 0.7888376 0.3499 0.7401608 0.3 0.7549246 0.3 0.7450755 0.2019215 0.7354156 0.1614698 0.7026796 0.2056906 0.7263162 0.2818731 0.7888376 0.2973204 0.8385303 0.2736839 0.7943094 0.1614698 0.7026796 0.2111625 0.7181269 0.2056906 0.7263162 0.7188105 0.05024188 0.6695648 0 0.7188105 0 0.8535534 0.1004838 0.8126071 0.05024188 0.8535534 0.05024188 0.7671099 0.05024188 0.7188105 0 0.7671099 0 0.5348219 0.1507258 0.5 0.1004838 0.5348219 0.1004838 0.6695648 0.2009677 0.6212654 0.1507258 0.6695648 0.1507258 0.8126071 0.05024188 0.7671099 0 0.8126071 0 0.5757682 0.1507258 0.5348219 0.1004838 0.5757682 0.1004838 0.7188105 0.2009677 0.6695648 0.1507258 0.7188105 0.1507258 0.8535534 0.05024188 0.8126071 0 0.8535534 0 0.6212654 0.1507258 0.5757682 0.1004838 0.6212654 0.1004838 0.7671099 0.2009677 0.7188105 0.1507258 0.7671099 0.1507258 0.5348219 0.2009677 0.5 0.1507259 0.5348219 0.1507258 0.6695648 0.1507258 0.6212654 0.1004838 0.6695648 0.1004838 0.8126071 0.2009677 0.7671099 0.1507258 0.8126071 0.1507258 0.5757682 0.2009677 0.5348219 0.1507258 0.5757682 0.1507258 0.7188105 0.1507258 0.6695648 0.1004838 0.7188105 0.1004838 0.8535534 0.2009677 0.8126071 0.1507258 0.8535534 0.1507258 0.6212654 0.2009677 0.5757682 0.1507258 0.6212654 0.1507258 0.7671099 0.1507258 0.7188105 0.1004838 0.7671099 0.1004838 0.5348219 0.1004838 0.5 0.05024194 0.5348219 0.05024194 0.8126071 0.1507258 0.7671099 0.1004838 0.8126071 0.1004838 0.5757682 0.1004838 0.5348219 0.05024194 0.5757682 0.05024194 0.8535534 0.1507258 0.8126071 0.1004838 0.8535534 0.1004838 0.6212654 0.1004838 0.5757682 0.05024194 0.6212653 0.05024194 0.5348219 0.05024194 0.5 0 0.5348219 0 0.6695648 0.1004838 0.6212653 0.05024194 0.6695648 0.05024194 0.5757682 0.05024194 0.5348219 0 0.5757682 0 0.7188105 0.1004838 0.6695648 0.05024194 0.7188105 0.05024194 0.6212653 0.05024188 0.5757682 0 0.6212653 0 0.7671099 0.1004838 0.7188105 0.05024194 0.7671099 0.05024188 0.6695648 0.05024188 0.6212653 0 0.6695648 0 0.8126071 0.1004838 0.7671099 0.05024188 0.8126071 0.05024188 0.4441877 0.09063428 0.4715471 0.1315806 0.4272377 0.1552644 0.4903926 0.3229224 0.4715471 0.3684194 0.4272377 0.3447356 0 0.2746228 0.04999995 0.2696983 0.05768585 0.3083378 0.4441877 0.09063428 0.4053502 0.1225074 0.3774926 0.09464985 0.5 0.2746229 0.4903926 0.3229224 0.4423141 0.3083379 0.02845281 0.3684194 0.009607315 0.3229223 0.05768585 0.3083378 0.3684194 0.02845287 0.4093657 0.05581229 0.3774926 0.09464985 0.05581223 0.4093657 0.02845281 0.3684194 0.07276225 0.3447355 0.3229223 0.009607315 0.3684194 0.02845287 0.3447355 0.07276231 0.05581223 0.4093657 0.09464979 0.3774926 0.1225074 0.4053502 0.3229223 0.009607315 0.3083379 0.05768585 0.2696983 0.04999995 0.09063422 0.4441877 0.1225074 0.4053502 0.1552644 0.4272377 0.2746229 0 0.2696983 0.04999995 0.2303017 0.04999995 0.1770776 0.4903926 0.1315805 0.4715471 0.1552644 0.4272377 0.2253772 0 0.2303017 0.04999995 0.1916621 0.05768585 0.1916621 0.4423141 0.2303016 0.45 0.2253771 0.5 0.1315806 0.02845281 0.1770777 0.009607315 0.1916621 0.05768585 0.2303016 0.45 0.1916621 0.4423141 0.2062466 0.3942356 0.09063428 0.05581229 0.1315806 0.02845281 0.1552644 0.07276225 0.2746228 0.5 0.2696982 0.45 0.3083378 0.4423141 0.09063428 0.05581229 0.1225074 0.09464985 0.09464985 0.1225074 0.3229223 0.4903926 0.3083378 0.4423141 0.3447355 0.4272377 0.05581229 0.09063422 0.09464985 0.1225074 0.07276225 0.1552644 0.5 0.2746229 0.45 0.2696983 0.45 0.2303017 0.4093657 0.4441877 0.3684194 0.4715471 0.3447355 0.4272377 0.009607315 0.1770777 0.02845287 0.1315805 0.07276225 0.1552644 0.5 0.2253772 0.45 0.2303017 0.4423141 0.1916621 0.4093657 0.4441877 0.3774926 0.4053502 0.4053501 0.3774926 0.009607315 0.1770777 0.05768585 0.1916621 0.04999995 0.2303017 0.4715471 0.1315806 0.4903926 0.1770777 0.4423141 0.1916621 0.4441877 0.4093657 0.4053501 0.3774926 0.4272377 0.3447356 0 0.2253771 0.04999995 0.2303017 0.04999995 0.2696983 0.04999995 0.2303017 0.05768585 0.1916621 0.1057644 0.2062466 0.4423141 0.1916621 0.3942356 0.2062466 0.3829283 0.1789484 0.4272377 0.3447356 0.4053501 0.3774926 0.3665126 0.3456194 0.04999995 0.2303017 0.09999996 0.2352262 0.09999996 0.2647737 0.4053502 0.1225074 0.4272377 0.1552644 0.3829283 0.1789484 0.4423141 0.3083379 0.4272377 0.3447356 0.3829283 0.3210517 0.04999995 0.2696983 0.09999996 0.2647737 0.1057644 0.2937534 0.4053502 0.1225074 0.3665126 0.1543806 0.3456194 0.1334874 0.45 0.2696983 0.4423141 0.3083379 0.3942356 0.2937534 0.05768585 0.3083378 0.1057644 0.2937534 0.1170716 0.3210516 0.3447355 0.07276231 0.3774926 0.09464985 0.3456194 0.1334874 0.09464979 0.3774926 0.07276225 0.3447355 0.1170716 0.3210516 0.3083379 0.05768585 0.3447355 0.07276231 0.3210517 0.1170717 0.09464979 0.3774926 0.1334874 0.3456194 0.1543805 0.3665126 0.2696983 0.04999995 0.3083379 0.05768585 0.2937534 0.1057644 0.1552644 0.4272377 0.1225074 0.4053502 0.1543805 0.3665126 0.2696983 0.04999995 0.2647737 0.1 0.2352263 0.09999996 0.1552644 0.4272377 0.1789483 0.3829283 0.2062466 0.3942356 0.2303017 0.04999995 0.2352263 0.09999996 0.2062466 0.1057644 0.2208602 0.3460609 0.2401607 0.3499 0.2352262 0.4 0.1916621 0.05768585 0.2062466 0.1057644 0.1789484 0.1170717 0.1225074 0.09464985 0.1552644 0.07276225 0.1789484 0.1170717 0.2696982 0.45 0.2647737 0.4 0.2937533 0.3942356 0.1225074 0.09464985 0.1543806 0.1334874 0.1334874 0.1543805 0.3083378 0.4423141 0.2937533 0.3942356 0.3210516 0.3829283 0.07276225 0.1552644 0.09464985 0.1225074 0.1334874 0.1543805 0.45 0.2696983 0.4 0.2647737 0.4 0.2352263 0.3774926 0.4053502 0.3447355 0.4272377 0.3210516 0.3829283 0.05768585 0.1916621 0.07276225 0.1552644 0.1170717 0.1789483 0.45 0.2303017 0.4 0.2352263 0.3942356 0.2062466 0.3774926 0.4053502 0.3456194 0.3665126 0.3665126 0.3456194 0.1057644 0.2937534 0.1539391 0.2791398 0.1614697 0.2973204 0.3210517 0.1170717 0.3456194 0.1334874 0.3136825 0.1724026 0.1170716 0.3210516 0.1614697 0.2973204 0.1723249 0.3137463 0.2937534 0.1057644 0.3210517 0.1170717 0.2973204 0.1614698 0.1334874 0.3456194 0.1723249 0.3137463 0.1862537 0.3276751 0.2647737 0.1 0.2937534 0.1057644 0.2791398 0.1539391 0.1789483 0.3829283 0.1543805 0.3665126 0.1862537 0.3276751 0.2647737 0.1 0.2598393 0.1501 0.2401508 0.15 0.2062466 0.3942356 0.1789483 0.3829283 0.2026795 0.3385303 0.2352263 0.09999996 0.2401508 0.15 0.220831 0.1538429 0.2062466 0.1057644 0.220831 0.1538429 0.2026322 0.1613811 0.1543806 0.1334874 0.1789484 0.1170717 0.2026322 0.1613811 0.2937533 0.3942356 0.2647737 0.4 0.2598491 0.35 0.1543806 0.1334874 0.1862537 0.1723249 0.1723249 0.1862537 0.2937533 0.3942356 0.2791397 0.3460609 0.2973204 0.3385303 0.1170717 0.1789483 0.1334874 0.1543805 0.1723249 0.1862537 0.4 0.2352263 0.4 0.2647737 0.35 0.2598491 0.3456194 0.3665126 0.3210516 0.3829283 0.2973204 0.3385303 0.1057644 0.2062466 0.1170717 0.1789483 0.1613811 0.2026322 0.4 0.2352263 0.35 0.2401508 0.346157 0.220831 0.3456194 0.3665126 0.3136825 0.3275974 0.3276751 0.3137463 0.1057644 0.2062466 0.1538429 0.220831 0.15 0.2401508 0.3942356 0.2062466 0.346157 0.220831 0.3386188 0.2026322 0.3829283 0.3210517 0.3665126 0.3456194 0.3276751 0.3137463 0.09999996 0.2352262 0.15 0.2401508 0.15 0.2598491 0.3665126 0.1543806 0.3829283 0.1789484 0.3386188 0.2026322 0.3942356 0.2937534 0.3829283 0.3210517 0.3386188 0.2973678 0.1057644 0.2937534 0.09999996 0.2647737 0.15 0.2598491 0.3456194 0.1334874 0.3665126 0.1543806 0.3276751 0.1862537 0.3942356 0.2937534 0.3460609 0.2791398 0.35 0.2598491 0.2598491 0.35 0.2647737 0.4 0.2352262 0.4 0.2303016 0.45 0.2352262 0.4 0.2647737 0.4 0.2303016 0.45 0.2696982 0.45 0.2746228 0.5 0.2736839 0.2056906 0.2973204 0.1614698 0.3136825 0.1724026 0.2111624 0.2818731 0.1723249 0.3137463 0.1614697 0.2973204 0.2645844 0.2019215 0.2791398 0.1539391 0.2973204 0.1614698 0.2181268 0.2888375 0.1862537 0.3276751 0.1723249 0.3137463 0.2549245 0.2 0.2598393 0.1501 0.2791398 0.1539391 0.2181268 0.2888375 0.2263161 0.2943094 0.2026795 0.3385303 0.2450754 0.2 0.2401508 0.15 0.2598393 0.1501 0.2263161 0.2943094 0.2354155 0.2980785 0.2208602 0.3460609 0.2354155 0.2019215 0.220831 0.1538429 0.2401508 0.15 0.2549245 0.3 0.2598491 0.35 0.2401607 0.3499 0.2354155 0.2019215 0.2263161 0.2056906 0.2026322 0.1613811 0.2549245 0.3 0.2645844 0.2980785 0.2791397 0.3460609 0.2263161 0.2056906 0.2181268 0.2111625 0.1862537 0.1723249 0.2736839 0.2943094 0.2973204 0.3385303 0.2791397 0.3460609 0.2111625 0.2181268 0.1723249 0.1862537 0.1862537 0.1723249 0.2736839 0.2943094 0.2818731 0.2888376 0.3136825 0.3275974 0.2056905 0.2263161 0.1613811 0.2026322 0.1723249 0.1862537 0.3 0.2549245 0.3 0.2450754 0.35 0.2401508 0.2888375 0.2818731 0.3276751 0.3137463 0.3136825 0.3275974 0.2401607 0.3499 0.2208602 0.3460609 0.2354155 0.2980785 0.2019214 0.2354155 0.1538429 0.220831 0.1613811 0.2026322 0.2980785 0.2354155 0.346157 0.220831 0.35 0.2401508 0.2943094 0.2736839 0.3386188 0.2973678 0.3276751 0.3137463 0.1999999 0.2450754 0.15 0.2401508 0.1538429 0.220831 0.2980785 0.2354155 0.2943094 0.2263161 0.3386188 0.2026322 0.2943094 0.2736839 0.2980785 0.2645845 0.3460609 0.2791398 0.1999999 0.2450754 0.1999999 0.2549245 0.15 0.2598491 0.2943094 0.2263161 0.2888375 0.2181268 0.3276751 0.1862537 0.3 0.2549245 0.35 0.2598491 0.3460609 0.2791398 0.1999999 0.2549245 0.2019214 0.2645844 0.1539391 0.2791398 0.2888375 0.2181268 0.2818731 0.2111625 0.3136825 0.1724026 0.2056905 0.2736839 0.1614697 0.2973204 0.1539391 0.2791398 0.4093657 0.9441877 0.3774926 0.9053502 0.4053502 0.8774926 0.5 0.7253772 0.45 0.7303017 0.4423141 0.6916622 0.07276225 0.6552644 0.05768585 0.6916621 0.009607315 0.6770777 0.3447355 0.9272378 0.3774926 0.9053502 0.4093657 0.9441877 0.5 0.7746229 0.45 0.7696983 0.45 0.7303017 0.05581229 0.5906343 0.09464985 0.6225075 0.07276225 0.6552644 0.3229223 0.9903927 0.3083378 0.9423142 0.3447355 0.9272378 0.09063428 0.5558123 0.1225074 0.5946499 0.09464985 0.6225075 0.2746228 1 0.2696983 0.9500001 0.3083378 0.9423142 0.1552644 0.5727623 0.1225074 0.5946499 0.09063428 0.5558123 0.2303017 0.9500001 0.2696983 0.9500001 0.2746228 1 0.1916621 0.5576859 0.1552644 0.5727623 0.1315806 0.5284529 0.1916621 0.9423142 0.2303017 0.9500001 0.2253771 1 0.2253772 0.5 0.2303017 0.55 0.1916621 0.5576859 0.1552644 0.9272378 0.1916621 0.9423142 0.1770776 0.9903927 0.2746229 0.5 0.2696983 0.55 0.2303017 0.55 0.09063422 0.9441877 0.1225074 0.9053502 0.1552644 0.9272378 0.2696983 0.55 0.2647737 0.6 0.2352263 0.6 0.05581229 0.9093657 0.09464979 0.8774926 0.1225074 0.9053502 0.3447356 0.5727623 0.3083379 0.5576859 0.3229223 0.5096074 0.07276225 0.8447355 0.09464979 0.8774926 0.05581229 0.9093657 0.3774926 0.5946499 0.3447356 0.5727623 0.3684194 0.5284529 0.05768585 0.8083379 0.07276225 0.8447355 0.02845281 0.8684194 0.4423141 0.8083379 0.45 0.7696983 0.5 0.7746229 0.4441877 0.5906344 0.4053502 0.6225075 0.3774926 0.5946499 0 0.7746229 0.04999995 0.7696983 0.05768585 0.8083379 0.4272377 0.8447356 0.4423141 0.8083379 0.4903926 0.8229224 0.4272377 0.6552645 0.4053502 0.6225075 0.4441877 0.5906344 0.04999995 0.7303017 0.04999995 0.7696983 0 0.7746229 0.4441877 0.9093658 0.4053502 0.8774926 0.4272377 0.8447356 0.4423141 0.6916622 0.4272377 0.6552645 0.4715471 0.6315807 0.05768585 0.6916621 0.04999995 0.7303017 0 0.7253772 0.04999995 0.7303017 0.09999996 0.7352263 0.09999996 0.7647737 0.3665126 0.8456194 0.3829283 0.8210517 0.4272377 0.8447356 0.4423141 0.6916622 0.3942356 0.7062466 0.3829283 0.6789484 0.1057644 0.7062466 0.09999996 0.7352263 0.04999995 0.7303017 0.3774926 0.9053502 0.3456194 0.8665127 0.3665126 0.8456194 0.45 0.7303017 0.4 0.7352263 0.3942356 0.7062466 0.1170717 0.6789484 0.1057644 0.7062466 0.05768585 0.6916621 0.3210516 0.8829283 0.3456194 0.8665127 0.3774926 0.9053502 0.45 0.7696983 0.4 0.7647737 0.4 0.7352263 0.1334874 0.6543806 0.1170717 0.6789484 0.07276225 0.6552644 0.3083378 0.9423142 0.2937534 0.8942356 0.3210516 0.8829283 0.1225074 0.5946499 0.1543806 0.6334874 0.1334874 0.6543806 0.2696983 0.9500001 0.2647737 0.9 0.2937534 0.8942356 0.1789484 0.6170718 0.1543806 0.6334874 0.1225074 0.5946499 0.2303017 0.9500001 0.2352262 0.9 0.2647737 0.9 0.1916621 0.5576859 0.2062466 0.6057645 0.1789484 0.6170718 0.2062466 0.8942356 0.2352262 0.9 0.2303017 0.9500001 0.2352263 0.6 0.2062466 0.6057645 0.1916621 0.5576859 0.1789483 0.8829283 0.2062466 0.8942356 0.1916621 0.9423142 0.2401607 0.6501 0.2352263 0.6 0.2647737 0.6 0.1543805 0.8665127 0.1789483 0.8829283 0.1552644 0.9272378 0.09464979 0.8774926 0.1334874 0.8456194 0.1543805 0.8665127 0.3210517 0.6170718 0.2937534 0.6057645 0.3083379 0.5576859 0.1170717 0.8210517 0.1334874 0.8456194 0.09464979 0.8774926 0.3456194 0.6334874 0.3210517 0.6170718 0.3447356 0.5727623 0.05768585 0.8083379 0.1057644 0.7937534 0.1170717 0.8210517 0.3942356 0.7937535 0.4 0.7647737 0.45 0.7696983 0.4053502 0.6225075 0.3665126 0.6543806 0.3456194 0.6334874 0.04999995 0.7696983 0.09999996 0.7647737 0.1057644 0.7937534 0.3829283 0.8210517 0.3942356 0.7937535 0.4423141 0.8083379 0.3829283 0.6789484 0.3665126 0.6543806 0.4053502 0.6225075 0.1724026 0.6863175 0.1614698 0.7026796 0.1170717 0.6789484 0.2937534 0.8942356 0.2791398 0.8460609 0.2973204 0.8385303 0.1862537 0.672325 0.1724026 0.6863175 0.1334874 0.6543806 0.2647737 0.9 0.2598392 0.8499 0.2791398 0.8460609 0.2026322 0.6613812 0.1862537 0.672325 0.1543806 0.6334874 0.2352262 0.9 0.2401607 0.8499 0.2598392 0.8499 0.2062466 0.6057645 0.2208603 0.6539391 0.2026322 0.6613812 0.220831 0.8461571 0.2401607 0.8499 0.2352262 0.9 0.2352263 0.6 0.2401607 0.6501 0.2208603 0.6539391 0.2026322 0.8386189 0.220831 0.8461571 0.2062466 0.8942356 0.1862537 0.8276751 0.2026322 0.8386189 0.1789483 0.8829283 0.1334874 0.8456194 0.1723249 0.8137463 0.1862537 0.8276751 0.3210517 0.6170718 0.2973204 0.6614698 0.2791689 0.653843 0.1613811 0.7973678 0.1723249 0.8137463 0.1334874 0.8456194 0.3136826 0.6724026 0.2973204 0.6614698 0.3210517 0.6170718 0.1057644 0.7937534 0.1538429 0.779169 0.1613811 0.7973678 0.3942356 0.7937535 0.346157 0.779169 0.35 0.7598492 0.3665126 0.6543806 0.3275974 0.6863175 0.3136826 0.6724026 0.09999996 0.7647737 0.15 0.7598491 0.1538429 0.779169 0.3386188 0.7973678 0.346157 0.779169 0.3942356 0.7937535 0.3386188 0.7026323 0.3275974 0.6863175 0.3665126 0.6543806 0.15 0.7401509 0.15 0.7598491 0.09999996 0.7647737 0.3276751 0.8137463 0.3386188 0.7973678 0.3829283 0.8210517 0.3942356 0.7062466 0.346157 0.7208311 0.3386188 0.7026323 0.1538429 0.7208311 0.15 0.7401509 0.09999996 0.7352263 0.3456194 0.8665127 0.3137463 0.8276751 0.3276751 0.8137463 0.4 0.7352263 0.3499 0.7401608 0.346157 0.7208311 0.1170717 0.6789484 0.1614698 0.7026796 0.1538429 0.7208311 0.3210516 0.8829283 0.2973204 0.8385303 0.3137463 0.8276751 0.35 0.7598492 0.3499 0.7401608 0.4 0.7352263 0.2647737 0.6 0.2937534 0.6057645 0.2791689 0.653843 0.2696983 0.55 0.3083379 0.5576859 0.2937534 0.6057645 0.3229223 0.5096074 0.3083379 0.5576859 0.2696983 0.55 0.2973204 0.8385303 0.2791398 0.8460609 0.2645844 0.7980785 0.1724026 0.6863175 0.1862537 0.672325 0.2181268 0.7111625 0.2791398 0.8460609 0.2598392 0.8499 0.2549245 0.8 0.1862537 0.672325 0.2026322 0.6613812 0.2263161 0.7056906 0.2598392 0.8499 0.2401607 0.8499 0.2450754 0.8 0.2263161 0.7056906 0.2026322 0.6613812 0.2208603 0.6539391 0.2401607 0.8499 0.220831 0.8461571 0.2354155 0.7980785 0.2354155 0.7019215 0.2208603 0.6539391 0.2401607 0.6501 0.220831 0.8461571 0.2026322 0.8386189 0.2263161 0.7943094 0.2598393 0.6501 0.2791689 0.653843 0.2645845 0.7019215 0.2263161 0.7943094 0.2026322 0.8386189 0.1862537 0.8276751 0.2645845 0.7019215 0.2791689 0.653843 0.2973204 0.6614698 0.2181268 0.7888376 0.1862537 0.8276751 0.1723249 0.8137463 0.2973204 0.6614698 0.3136826 0.6724026 0.2818731 0.7111625 0.1723249 0.8137463 0.1613811 0.7973678 0.2056906 0.7736839 0.2818731 0.7111625 0.3136826 0.6724026 0.3275974 0.6863175 0.1613811 0.7973678 0.1538429 0.779169 0.2019214 0.7645845 0.3 0.7549246 0.35 0.7598492 0.346157 0.779169 0.3275974 0.6863175 0.3386188 0.7026323 0.2943094 0.7263162 0.2450754 0.7000001 0.2401607 0.6501 0.2598393 0.6501 0.1538429 0.779169 0.15 0.7598491 0.2 0.7549246 0.346157 0.779169 0.3386188 0.7973678 0.2943094 0.7736839 0.3386188 0.7026323 0.346157 0.7208311 0.2980785 0.7354156 0.15 0.7598491 0.15 0.7401509 0.2 0.7450755 0.2943094 0.7736839 0.3386188 0.7973678 0.3276751 0.8137463 0.2980785 0.7354156 0.346157 0.7208311 0.3499 0.7401608 0.2 0.7450755 0.15 0.7401509 0.1538429 0.7208311 0.2888375 0.7818732 0.3276751 0.8137463 0.3137463 0.8276751 0.3499 0.7401608 0.35 0.7598492 0.3 0.7549246 0.2019215 0.7354156 0.1538429 0.7208311 0.1614698 0.7026796 0.2818731 0.7888376 0.3137463 0.8276751 0.2973204 0.8385303 0.1614698 0.7026796 0.1724026 0.6863175 0.2111625 0.7181269 0.7188105 0.05024188 0.6695648 0.05024188 0.6695648 0 0.8535534 0.1004838 0.8126071 0.1004838 0.8126071 0.05024188 0.7671099 0.05024188 0.7188105 0.05024188 0.7188105 0 0.5348219 0.1507258 0.5 0.1507258 0.5 0.1004838 0.6695648 0.2009677 0.6212654 0.2009677 0.6212654 0.1507258 0.8126071 0.05024188 0.7671099 0.05024188 0.7671099 0 0.5757682 0.1507258 0.5348219 0.1507258 0.5348219 0.1004838 0.7188105 0.2009677 0.6695648 0.2009677 0.6695648 0.1507258 0.8535534 0.05024188 0.8126071 0.05024188 0.8126071 0 0.6212654 0.1507258 0.5757682 0.1507258 0.5757682 0.1004838 0.7671099 0.2009677 0.7188105 0.2009677 0.7188105 0.1507258 0.5348219 0.2009677 0.5 0.2009677 0.5 0.1507259 0.6695648 0.1507258 0.6212654 0.1507258 0.6212654 0.1004838 0.8126071 0.2009677 0.7671099 0.2009677 0.7671099 0.1507258 0.5757682 0.2009677 0.5348219 0.2009677 0.5348219 0.1507258 0.7188105 0.1507258 0.6695648 0.1507258 0.6695648 0.1004838 0.8535534 0.2009677 0.8126071 0.2009677 0.8126071 0.1507258 0.6212654 0.2009677 0.5757682 0.2009677 0.5757682 0.1507258 0.7671099 0.1507258 0.7188105 0.1507258 0.7188105 0.1004838 0.5348219 0.1004838 0.5 0.1004838 0.5 0.05024194 0.8126071 0.1507258 0.7671099 0.1507258 0.7671099 0.1004838 0.5757682 0.1004838 0.5348219 0.1004838 0.5348219 0.05024194 0.8535534 0.1507258 0.8126071 0.1507258 0.8126071 0.1004838 0.6212654 0.1004838 0.5757682 0.1004838 0.5757682 0.05024194 0.5348219 0.05024194 0.5 0.05024194 0.5 0 0.6695648 0.1004838 0.6212654 0.1004838 0.6212653 0.05024194 0.5757682 0.05024194 0.5348219 0.05024194 0.5348219 0 0.7188105 0.1004838 0.6695648 0.1004838 0.6695648 0.05024194 0.6212653 0.05024188 0.5757682 0.05024194 0.5757682 0 0.7671099 0.1004838 0.7188105 0.1004838 0.7188105 0.05024194 0.6695648 0.05024188 0.6212653 0.05024188 0.6212653 0 0.8126071 0.1004838 0.7671099 0.1004838 0.7671099 0.05024188</float_array>
          <technique_common>
            <accessor source="#Circle-mesh-map-0-array" count="1920" stride="2">
              <param name="S" type="float"/>
              <param name="T" type="float"/>
            </accessor>
          </technique_common>
        </source>
        <vertices id="Circle-mesh-vertices">
          <input semantic="POSITION" source="#Circle-mesh-positions"/>
        </vertices>
        <triangles material="CDRoundTargetMaterial-material" count="640">
          <input semantic="VERTEX" source="#Circle-mesh-vertices" offset="0"/>
          <input semantic="NORMAL" source="#Circle-mesh-normals" offset="1"/>
          <input semantic="TEXCOORD" source="#Circle-mesh-map-0" offset="2" set="0"/>
          <p>36 0 0 69 0 1 70 0 2 63 0 3 95 0 4 96 0 5 49 0 6 84 0 7 50 0 8 36 0 9 71 0 10 37 0 11 32 0 12 96 0 13 66 0 14 51 0 15 84 0 16 85 0 17 38 0 18 71 0 19 72 0 20 52 0 21 85 0 22 86 0 23 39 0 24 72 0 25 73 0 26 52 0 27 87 0 28 53 0 29 39 0 30 74 0 31 40 0 32 53 0 33 88 0 34 54 0 35 40 0 36 75 0 37 41 0 38 55 0 39 88 0 40 89 0 41 41 0 42 76 0 43 42 0 44 89 0 45 56 0 46 55 0 47 43 0 48 76 0 49 77 0 50 65 0 51 120 0 52 64 0 53 44 0 54 77 0 55 78 0 56 57 0 57 91 0 58 58 0 59 44 0 60 79 0 61 45 0 62 58 0 63 92 0 64 59 0 65 45 0 66 80 0 67 46 0 68 32 0 69 67 0 70 33 0 71 60 0 72 92 0 73 93 0 74 47 0 75 80 0 76 81 0 77 33 0 78 68 0 79 34 0 80 60 0 81 94 0 82 61 0 83 47 0 84 82 0 85 48 0 86 35 0 87 68 0 88 69 0 89 61 0 90 95 0 91 62 0 92 48 0 93 83 0 94 49 0 95 82 0 96 112 0 97 113 0 98 68 0 99 100 0 100 69 0 101 95 0 102 125 0 103 126 0 104 82 0 105 114 0 106 83 0 107 70 0 108 100 0 109 101 0 110 96 0 111 126 0 112 127 0 113 83 0 114 115 0 115 84 0 116 70 0 117 102 0 118 71 0 119 66 0 120 127 0 121 97 0 122 84 0 123 116 0 124 85 0 125 72 0 126 102 0 127 103 0 128 86 0 129 116 0 130 117 0 131 73 0 132 103 0 133 104 0 134 86 0 135 118 0 136 87 0 137 74 0 138 104 0 139 105 0 140 88 0 141 118 0 142 119 0 143 74 0 144 106 0 145 75 0 146 88 0 147 120 0 148 89 0 149 75 0 150 107 0 151 76 0 152 135 0 153 64 0 154 120 0 155 76 0 156 108 0 157 77 0 158 78 0 159 108 0 160 109 0 161 90 0 162 122 0 163 91 0 164 78 0 165 110 0 166 79 0 167 91 0 168 123 0 169 92 0 170 80 0 171 110 0 172 111 0 173 66 0 174 98 0 175 67 0 176 93 0 177 123 0 178 124 0 179 81 0 180 111 0 181 112 0 182 67 0 183 99 0 184 68 0 185 93 0 186 125 0 187 94 0 188 115 0 189 133 0 190 116 0 191 103 0 192 128 0 193 129 0 194 116 0 195 156 0 196 117 0 197 104 0 198 129 0 199 130 0 200 117 0 201 157 0 202 118 0 203 105 0 204 130 0 205 131 0 206 119 0 207 157 0 208 134 0 209 105 0 210 147 0 211 106 0 212 120 0 213 134 0 214 135 0 215 106 0 216 148 0 217 107 0 218 107 0 219 149 0 220 108 0 221 109 0 222 149 0 223 150 0 224 122 0 225 158 0 226 137 0 227 109 0 228 151 0 229 110 0 230 122 0 231 138 0 232 123 0 233 111 0 234 151 0 235 152 0 236 98 0 237 142 0 238 143 0 239 124 0 240 138 0 241 139 0 242 112 0 243 152 0 244 153 0 245 98 0 246 144 0 247 99 0 248 124 0 249 159 0 250 125 0 251 112 0 252 154 0 253 113 0 254 99 0 255 145 0 256 100 0 257 126 0 258 159 0 259 160 0 260 113 0 261 155 0 262 114 0 263 101 0 264 145 0 265 146 0 266 127 0 267 160 0 268 140 0 269 115 0 270 155 0 271 132 0 272 102 0 273 146 0 274 128 0 275 127 0 276 142 0 277 97 0 278 23 0 279 22 0 280 141 0 281 10 0 282 9 0 283 141 0 284 25 0 285 24 0 286 141 0 287 11 0 288 10 0 289 141 0 290 26 0 291 25 0 292 141 0 293 12 0 294 11 0 295 141 0 296 27 0 297 26 0 298 141 0 299 13 0 300 12 0 301 141 0 302 28 0 303 27 0 304 141 0 305 14 0 306 13 0 307 141 0 308 1 0 309 0 0 310 141 0 311 29 0 312 28 0 313 141 0 314 23 0 315 141 0 316 24 0 317 15 0 318 14 0 319 141 0 320 2 0 321 1 0 322 141 0 323 30 0 324 29 0 325 141 0 326 16 0 327 15 0 328 141 0 329 3 0 330 2 0 331 141 0 332 31 0 333 30 0 334 141 0 335 17 0 336 16 0 337 141 0 338 4 0 339 3 0 340 141 0 341 0 0 342 31 0 343 141 0 344 18 0 345 17 0 346 141 0 347 5 0 348 4 0 349 141 0 350 19 0 351 18 0 352 141 0 353 6 0 354 5 0 355 141 0 356 20 0 357 19 0 358 141 0 359 7 0 360 6 0 361 141 0 362 21 0 363 20 0 364 141 0 365 8 0 366 7 0 367 141 0 368 22 0 369 21 0 370 141 0 371 9 0 372 8 0 373 141 0 374 158 0 375 64 0 376 136 0 377 65 0 378 121 0 379 90 0 380 65 0 381 57 0 382 56 0 383 6 0 384 128 0 385 5 0 386 20 0 387 133 0 388 19 0 389 7 0 390 129 0 391 6 0 392 21 0 393 156 0 394 20 0 395 8 0 396 130 0 397 7 0 398 21 0 399 134 0 400 157 0 401 9 0 402 131 0 403 8 0 404 22 0 405 135 0 406 134 0 407 10 0 408 147 0 409 9 0 410 25 0 411 136 0 412 24 0 413 10 0 414 149 0 415 148 0 416 25 0 417 137 0 418 158 0 419 11 0 420 150 0 421 149 0 422 27 0 423 137 0 424 26 0 425 13 0 426 150 0 427 12 0 428 27 0 429 139 0 430 138 0 431 14 0 432 151 0 433 13 0 434 0 0 435 143 0 436 142 0 437 29 0 438 139 0 439 28 0 440 136 0 441 23 0 442 24 0 443 15 0 444 152 0 445 14 0 446 2 0 447 143 0 448 1 0 449 30 0 450 159 0 451 29 0 452 16 0 453 153 0 454 15 0 455 2 0 456 145 0 457 144 0 458 30 0 459 140 0 460 160 0 461 16 0 462 155 0 463 154 0 464 3 0 465 146 0 466 145 0 467 0 0 468 140 0 469 31 0 470 17 0 471 132 0 472 155 0 473 4 0 474 128 0 475 146 0 476 19 0 477 132 0 478 18 0 479 197 1 480 230 1 481 196 1 482 224 1 483 256 1 484 223 1 485 245 1 486 210 1 487 211 1 488 232 1 489 197 1 490 198 1 491 193 1 492 257 1 493 224 1 494 212 1 495 245 1 496 211 1 497 199 1 498 232 1 499 198 1 500 213 1 501 246 1 502 212 1 503 200 1 504 233 1 505 199 1 506 248 1 507 213 1 508 214 1 509 235 2 510 200 1 511 201 3 512 249 1 513 214 1 514 215 1 515 236 4 516 201 3 517 202 1 518 216 1 519 249 1 520 215 1 521 237 1 522 202 1 523 203 1 524 217 5 525 250 1 526 216 1 527 204 1 528 237 1 529 203 1 530 226 6 531 281 7 532 250 1 533 205 1 534 238 1 535 204 1 536 252 1 537 218 8 538 219 1 539 240 1 540 205 1 541 206 1 542 253 1 543 219 1 544 220 1 545 241 1 546 206 1 547 207 1 548 228 1 549 193 1 550 194 1 551 221 1 552 253 1 553 220 1 554 208 1 555 241 1 556 207 1 557 229 1 558 194 1 559 195 1 560 255 1 561 221 1 562 222 1 563 243 1 564 208 1 565 209 1 566 196 1 567 229 1 568 195 1 569 256 1 570 222 1 571 223 1 572 244 1 573 209 1 574 210 1 575 243 1 576 273 1 577 242 1 578 261 1 579 229 1 580 230 1 581 256 1 582 286 1 583 255 1 584 275 1 585 243 1 586 244 1 587 231 1 588 261 1 589 230 1 590 257 1 591 287 1 592 256 1 593 276 1 594 244 1 595 245 1 596 263 1 597 231 1 598 232 1 599 227 1 600 288 1 601 257 1 602 277 1 603 245 1 604 246 1 605 233 1 606 263 1 607 232 1 608 247 1 609 277 1 610 246 1 611 234 1 612 264 1 613 233 1 614 279 1 615 247 1 616 248 1 617 235 2 618 265 1 619 234 1 620 249 1 621 279 1 622 248 1 623 267 9 624 235 2 625 236 4 626 281 7 627 249 1 628 250 1 629 268 1 630 236 4 631 237 1 632 296 10 633 225 11 634 297 12 635 269 1 636 237 1 637 238 1 638 239 1 639 269 1 640 238 1 641 283 1 642 251 1 643 252 1 644 271 1 645 239 1 646 240 1 647 284 1 648 252 1 649 253 1 650 241 1 651 271 1 652 240 1 653 259 1 654 227 1 655 228 1 656 254 1 657 284 1 658 253 1 659 242 1 660 272 1 661 241 1 662 260 1 663 228 1 664 229 1 665 286 1 666 254 1 667 255 1 668 294 13 669 276 1 670 277 1 671 264 1 672 289 1 673 263 1 674 317 1 675 277 1 676 278 1 677 265 1 678 290 14 679 264 1 680 318 1 681 278 1 682 279 1 683 266 15 684 291 16 685 265 1 686 280 1 687 318 1 688 279 1 689 308 17 690 266 15 691 267 9 692 281 7 693 295 1 694 280 1 695 309 1 696 267 9 697 268 1 698 310 1 699 268 1 700 269 1 701 270 1 702 310 1 703 269 1 704 283 1 705 319 18 706 282 19 707 312 1 708 270 1 709 271 1 710 299 1 711 283 1 712 284 1 713 272 1 714 312 1 715 271 1 716 259 1 717 303 1 718 258 1 719 285 1 720 299 1 721 284 1 722 273 1 723 313 1 724 272 1 725 305 1 726 259 1 727 260 1 728 320 1 729 285 1 730 286 1 731 315 1 732 273 1 733 274 1 734 306 1 735 260 1 736 261 1 737 287 1 738 320 1 739 286 1 740 316 1 741 274 1 742 275 1 743 262 1 744 306 1 745 261 1 746 288 1 747 321 1 748 287 1 749 276 1 750 316 1 751 275 1 752 263 1 753 307 1 754 262 1 755 303 1 756 288 1 757 258 1 758 184 20 759 302 21 760 183 1 761 171 1 762 302 21 763 170 22 764 186 23 765 302 21 766 185 24 767 172 1 768 302 21 769 171 1 770 187 25 771 302 21 772 186 23 773 173 1 774 302 21 775 172 1 776 188 1 777 302 21 778 187 25 779 174 1 780 302 21 781 173 1 782 189 1 783 302 21 784 188 1 785 175 1 786 302 21 787 174 1 788 162 1 789 302 21 790 161 1 791 190 1 792 302 21 793 189 1 794 184 20 795 185 24 796 302 21 797 176 1 798 302 21 799 175 1 800 163 1 801 302 21 802 162 1 803 191 1 804 302 21 805 190 1 806 177 1 807 302 21 808 176 1 809 164 1 810 302 21 811 163 1 812 192 1 813 302 21 814 191 1 815 178 1 816 302 21 817 177 1 818 165 1 819 302 21 820 164 1 821 161 1 822 302 21 823 192 1 824 179 26 825 302 21 826 178 1 827 166 1 828 302 21 829 165 1 830 180 27 831 302 21 832 179 26 833 167 28 834 302 21 835 166 1 836 181 1 837 302 21 838 180 27 839 168 29 840 302 21 841 167 28 842 182 1 843 302 21 844 181 1 845 169 30 846 302 21 847 168 29 848 183 1 849 302 21 850 182 1 851 170 22 852 302 21 853 169 30 854 225 11 855 319 18 856 297 12 857 226 6 858 282 19 859 225 11 860 218 8 861 226 6 862 217 5 863 289 1 864 167 28 865 166 1 866 294 13 867 181 1 868 180 27 869 290 14 870 168 29 871 167 28 872 317 1 873 182 1 874 181 1 875 291 16 876 169 30 877 168 29 878 182 1 879 295 1 880 183 1 881 292 31 882 170 22 883 169 30 884 183 1 885 296 10 886 184 20 887 308 17 888 171 1 889 170 22 890 297 12 891 186 23 892 185 24 893 171 1 894 310 1 895 172 1 896 186 23 897 298 32 898 187 25 899 172 1 900 311 1 901 173 1 902 298 32 903 188 1 904 187 25 905 311 1 906 174 1 907 173 1 908 188 1 909 300 1 910 189 1 911 312 1 912 175 1 913 174 1 914 161 1 915 304 1 916 162 1 917 300 1 918 190 1 919 189 1 920 184 20 921 297 12 922 185 24 923 313 1 924 176 1 925 175 1 926 304 1 927 163 1 928 162 1 929 320 1 930 191 1 931 190 1 932 314 1 933 177 1 934 176 1 935 163 1 936 306 1 937 164 1 938 191 1 939 301 1 940 192 1 941 177 1 942 316 1 943 178 1 944 164 1 945 307 1 946 165 1 947 301 1 948 161 1 949 192 1 950 178 1 951 293 33 952 179 26 953 165 1 954 289 1 955 166 1 956 293 33 957 180 27 958 179 26 959 219 34 960 57 35 961 58 34 962 206 36 963 44 37 964 45 36 965 220 38 966 58 34 967 59 38 968 207 39 969 45 36 970 46 39 971 194 40 972 32 41 973 33 40 974 221 42 975 59 38 976 60 42 977 208 43 978 46 39 979 47 43 980 195 44 981 33 40 982 34 44 983 222 45 984 60 42 985 61 45 986 209 46 987 47 43 988 48 46 989 196 47 990 34 44 991 35 47 992 223 48 993 61 45 994 62 49 995 210 50 996 48 46 997 49 50 998 197 51 999 35 47 1000 36 51 1001 224 52 1002 62 49 1003 63 52 1004 211 53 1005 49 50 1006 50 54 1007 198 55 1008 36 51 1009 37 55 1010 193 41 1011 63 52 1012 32 41 1013 212 56 1014 50 54 1015 51 56 1016 199 57 1017 37 55 1018 38 57 1019 213 58 1020 51 56 1021 52 58 1022 200 59 1023 38 57 1024 39 60 1025 214 61 1026 52 58 1027 53 61 1028 201 62 1029 39 60 1030 40 63 1031 215 64 1032 53 61 1033 54 65 1034 202 66 1035 40 63 1036 41 67 1037 216 68 1038 54 65 1039 55 69 1040 203 70 1041 41 67 1042 42 71 1043 217 72 1044 55 69 1045 56 73 1046 204 74 1047 42 71 1048 43 74 1049 218 75 1050 56 73 1051 57 35 1052 205 37 1053 43 74 1054 44 37 1055 36 0 1056 35 0 1057 69 0 1058 63 0 1059 62 0 1060 95 0 1061 49 0 1062 83 0 1063 84 0 1064 36 0 1065 70 0 1066 71 0 1067 32 0 1068 63 0 1069 96 0 1070 51 0 1071 50 0 1072 84 0 1073 38 0 1074 37 0 1075 71 0 1076 52 0 1077 51 0 1078 85 0 1079 39 0 1080 38 0 1081 72 0 1082 52 0 1083 86 0 1084 87 0 1085 39 0 1086 73 0 1087 74 0 1088 53 0 1089 87 0 1090 88 0 1091 40 0 1092 74 0 1093 75 0 1094 55 0 1095 54 0 1096 88 0 1097 41 0 1098 75 0 1099 76 0 1100 89 0 1101 65 0 1102 56 0 1103 43 0 1104 42 0 1105 76 0 1106 65 0 1107 89 0 1108 120 0 1109 44 0 1110 43 0 1111 77 0 1112 57 0 1113 90 0 1114 91 0 1115 44 0 1116 78 0 1117 79 0 1118 58 0 1119 91 0 1120 92 0 1121 45 0 1122 79 0 1123 80 0 1124 32 0 1125 66 0 1126 67 0 1127 60 0 1128 59 0 1129 92 0 1130 47 0 1131 46 0 1132 80 0 1133 33 0 1134 67 0 1135 68 0 1136 60 0 1137 93 0 1138 94 0 1139 47 0 1140 81 0 1141 82 0 1142 35 0 1143 34 0 1144 68 0 1145 61 0 1146 94 0 1147 95 0 1148 48 0 1149 82 0 1150 83 0 1151 82 0 1152 81 0 1153 112 0 1154 68 0 1155 99 0 1156 100 0 1157 95 0 1158 94 0 1159 125 0 1160 82 0 1161 113 0 1162 114 0 1163 70 0 1164 69 0 1165 100 0 1166 96 0 1167 95 0 1168 126 0 1169 83 0 1170 114 0 1171 115 0 1172 70 0 1173 101 0 1174 102 0 1175 66 0 1176 96 0 1177 127 0 1178 84 0 1179 115 0 1180 116 0 1181 72 0 1182 71 0 1183 102 0 1184 86 0 1185 85 0 1186 116 0 1187 73 0 1188 72 0 1189 103 0 1190 86 0 1191 117 0 1192 118 0 1193 74 0 1194 73 0 1195 104 0 1196 88 0 1197 87 0 1198 118 0 1199 74 0 1200 105 0 1201 106 0 1202 88 0 1203 119 0 1204 120 0 1205 75 0 1206 106 0 1207 107 0 1208 135 0 1209 136 0 1210 64 0 1211 76 0 1212 107 0 1213 108 0 1214 78 0 1215 77 0 1216 108 0 1217 90 0 1218 121 0 1219 122 0 1220 78 0 1221 109 0 1222 110 0 1223 91 0 1224 122 0 1225 123 0 1226 80 0 1227 79 0 1228 110 0 1229 66 0 1230 97 0 1231 98 0 1232 93 0 1233 92 0 1234 123 0 1235 81 0 1236 80 0 1237 111 0 1238 67 0 1239 98 0 1240 99 0 1241 93 0 1242 124 0 1243 125 0 1244 115 0 1245 132 0 1246 133 0 1247 103 0 1248 102 0 1249 128 0 1250 116 0 1251 133 0 1252 156 0 1253 104 0 1254 103 0 1255 129 0 1256 117 0 1257 156 0 1258 157 0 1259 105 0 1260 104 0 1261 130 0 1262 119 0 1263 118 0 1264 157 0 1265 105 0 1266 131 0 1267 147 0 1268 120 0 1269 119 0 1270 134 0 1271 106 0 1272 147 0 1273 148 0 1274 107 0 1275 148 0 1276 149 0 1277 109 0 1278 108 0 1279 149 0 1280 122 0 1281 121 0 1282 158 0 1283 109 0 1284 150 0 1285 151 0 1286 122 0 1287 137 0 1288 138 0 1289 111 0 1290 110 0 1291 151 0 1292 98 0 1293 97 0 1294 142 0 1295 124 0 1296 123 0 1297 138 0 1298 112 0 1299 111 0 1300 152 0 1301 98 0 1302 143 0 1303 144 0 1304 124 0 1305 139 0 1306 159 0 1307 112 0 1308 153 0 1309 154 0 1310 99 0 1311 144 0 1312 145 0 1313 126 0 1314 125 0 1315 159 0 1316 113 0 1317 154 0 1318 155 0 1319 101 0 1320 100 0 1321 145 0 1322 127 0 1323 126 0 1324 160 0 1325 115 0 1326 114 0 1327 155 0 1328 102 0 1329 101 0 1330 146 0 1331 127 0 1332 140 0 1333 142 0 1334 158 0 1335 121 0 1336 64 0 1337 65 0 1338 64 0 1339 121 0 1340 65 0 1341 90 0 1342 57 0 1343 6 0 1344 129 0 1345 128 0 1346 20 0 1347 156 0 1348 133 0 1349 7 0 1350 130 0 1351 129 0 1352 21 0 1353 157 0 1354 156 0 1355 8 0 1356 131 0 1357 130 0 1358 21 0 1359 22 0 1360 134 0 1361 9 0 1362 147 0 1363 131 0 1364 22 0 1365 23 0 1366 135 0 1367 10 0 1368 148 0 1369 147 0 1370 25 0 1371 158 0 1372 136 0 1373 10 0 1374 11 0 1375 149 0 1376 25 0 1377 26 0 1378 137 0 1379 11 0 1380 12 0 1381 150 0 1382 27 0 1383 138 0 1384 137 0 1385 13 0 1386 151 0 1387 150 0 1388 27 0 1389 28 0 1390 139 0 1391 14 0 1392 152 0 1393 151 0 1394 0 0 1395 1 0 1396 143 0 1397 29 0 1398 159 0 1399 139 0 1400 136 0 1401 135 0 1402 23 0 1403 15 0 1404 153 0 1405 152 0 1406 2 0 1407 144 0 1408 143 0 1409 30 0 1410 160 0 1411 159 0 1412 16 0 1413 154 0 1414 153 0 1415 2 0 1416 3 0 1417 145 0 1418 30 0 1419 31 0 1420 140 0 1421 16 0 1422 17 0 1423 155 0 1424 3 0 1425 4 0 1426 146 0 1427 0 0 1428 142 0 1429 140 0 1430 17 0 1431 18 0 1432 132 0 1433 4 0 1434 5 0 1435 128 0 1436 19 0 1437 133 0 1438 132 0 1439 197 1 1440 231 1 1441 230 1 1442 224 1 1443 257 1 1444 256 1 1445 245 1 1446 244 1 1447 210 1 1448 232 1 1449 231 1 1450 197 1 1451 193 1 1452 227 1 1453 257 1 1454 212 1 1455 246 1 1456 245 1 1457 199 1 1458 233 1 1459 232 1 1460 213 1 1461 247 1 1462 246 1 1463 200 1 1464 234 1 1465 233 1 1466 248 1 1467 247 1 1468 213 1 1469 235 2 1470 234 1 1471 200 1 1472 249 1 1473 248 1 1474 214 1 1475 236 4 1476 235 2 1477 201 3 1478 216 1 1479 250 1 1480 249 1 1481 237 1 1482 236 4 1483 202 1 1484 217 5 1485 226 6 1486 250 1 1487 204 1 1488 238 1 1489 237 1 1490 226 6 1491 225 11 1492 281 7 1493 205 1 1494 239 1 1495 238 1 1496 252 1 1497 251 1 1498 218 8 1499 240 1 1500 239 1 1501 205 1 1502 253 1 1503 252 1 1504 219 1 1505 241 1 1506 240 1 1507 206 1 1508 228 1 1509 227 1 1510 193 1 1511 221 1 1512 254 1 1513 253 1 1514 208 1 1515 242 1 1516 241 1 1517 229 1 1518 228 1 1519 194 1 1520 255 1 1521 254 1 1522 221 1 1523 243 1 1524 242 1 1525 208 1 1526 196 1 1527 230 1 1528 229 1 1529 256 1 1530 255 1 1531 222 1 1532 244 1 1533 243 1 1534 209 1 1535 243 1 1536 274 1 1537 273 1 1538 261 1 1539 260 1 1540 229 1 1541 256 1 1542 287 1 1543 286 1 1544 275 1 1545 274 1 1546 243 1 1547 231 1 1548 262 1 1549 261 1 1550 257 1 1551 288 1 1552 287 1 1553 276 1 1554 275 1 1555 244 1 1556 263 1 1557 262 1 1558 231 1 1559 227 1 1560 258 1 1561 288 1 1562 277 1 1563 276 1 1564 245 1 1565 233 1 1566 264 1 1567 263 1 1568 247 1 1569 278 1 1570 277 1 1571 234 1 1572 265 1 1573 264 1 1574 279 1 1575 278 1 1576 247 1 1577 235 2 1578 266 15 1579 265 1 1580 249 1 1581 280 1 1582 279 1 1583 267 9 1584 266 15 1585 235 2 1586 281 7 1587 280 1 1588 249 1 1589 268 1 1590 267 9 1591 236 4 1592 296 10 1593 281 7 1594 225 11 1595 269 1 1596 268 1 1597 237 1 1598 239 1 1599 270 1 1600 269 1 1601 283 1 1602 282 19 1603 251 1 1604 271 1 1605 270 1 1606 239 1 1607 284 1 1608 283 1 1609 252 1 1610 241 1 1611 272 1 1612 271 1 1613 259 1 1614 258 1 1615 227 1 1616 254 1 1617 285 1 1618 284 1 1619 242 1 1620 273 1 1621 272 1 1622 260 1 1623 259 1 1624 228 1 1625 286 1 1626 285 1 1627 254 1 1628 294 13 1629 293 33 1630 276 1 1631 264 1 1632 290 14 1633 289 1 1634 317 1 1635 294 13 1636 277 1 1637 265 1 1638 291 16 1639 290 14 1640 318 1 1641 317 1 1642 278 1 1643 266 15 1644 292 31 1645 291 16 1646 280 1 1647 295 1 1648 318 1 1649 308 17 1650 292 31 1651 266 15 1652 281 7 1653 296 10 1654 295 1 1655 309 1 1656 308 17 1657 267 9 1658 310 1 1659 309 1 1660 268 1 1661 270 1 1662 311 1 1663 310 1 1664 283 1 1665 298 32 1666 319 18 1667 312 1 1668 311 1 1669 270 1 1670 299 1 1671 298 32 1672 283 1 1673 272 1 1674 313 1 1675 312 1 1676 259 1 1677 304 1 1678 303 1 1679 285 1 1680 300 1 1681 299 1 1682 273 1 1683 314 1 1684 313 1 1685 305 1 1686 304 1 1687 259 1 1688 320 1 1689 300 1 1690 285 1 1691 315 1 1692 314 1 1693 273 1 1694 306 1 1695 305 1 1696 260 1 1697 287 1 1698 321 1 1699 320 1 1700 316 1 1701 315 1 1702 274 1 1703 262 1 1704 307 1 1705 306 1 1706 288 1 1707 301 1 1708 321 1 1709 276 1 1710 293 33 1711 316 1 1712 263 1 1713 289 1 1714 307 1 1715 303 1 1716 301 1 1717 288 1 1718 225 11 1719 282 19 1720 319 18 1721 226 6 1722 251 1 1723 282 19 1724 218 8 1725 251 1 1726 226 6 1727 289 1 1728 290 14 1729 167 28 1730 294 13 1731 317 1 1732 181 1 1733 290 14 1734 291 16 1735 168 29 1736 317 1 1737 318 1 1738 182 1 1739 291 16 1740 292 31 1741 169 30 1742 182 1 1743 318 1 1744 295 1 1745 292 31 1746 308 17 1747 170 22 1748 183 1 1749 295 1 1750 296 10 1751 308 17 1752 309 1 1753 171 1 1754 297 12 1755 319 18 1756 186 23 1757 171 1 1758 309 1 1759 310 1 1760 186 23 1761 319 18 1762 298 32 1763 172 1 1764 310 1 1765 311 1 1766 298 32 1767 299 1 1768 188 1 1769 311 1 1770 312 1 1771 174 1 1772 188 1 1773 299 1 1774 300 1 1775 312 1 1776 313 1 1777 175 1 1778 161 1 1779 303 1 1780 304 1 1781 300 1 1782 320 1 1783 190 1 1784 184 20 1785 296 10 1786 297 12 1787 313 1 1788 314 1 1789 176 1 1790 304 1 1791 305 1 1792 163 1 1793 320 1 1794 321 1 1795 191 1 1796 314 1 1797 315 1 1798 177 1 1799 163 1 1800 305 1 1801 306 1 1802 191 1 1803 321 1 1804 301 1 1805 177 1 1806 315 1 1807 316 1 1808 164 1 1809 306 1 1810 307 1 1811 301 1 1812 303 1 1813 161 1 1814 178 1 1815 316 1 1816 293 33 1817 165 1 1818 307 1 1819 289 1 1820 293 33 1821 294 13 1822 180 27 1823 219 34 1824 218 75 1825 57 35 1826 206 36 1827 205 37 1828 44 37 1829 220 38 1830 219 34 1831 58 34 1832 207 39 1833 206 36 1834 45 36 1835 194 40 1836 193 41 1837 32 41 1838 221 42 1839 220 38 1840 59 38 1841 208 43 1842 207 39 1843 46 39 1844 195 44 1845 194 40 1846 33 40 1847 222 45 1848 221 42 1849 60 42 1850 209 46 1851 208 43 1852 47 43 1853 196 47 1854 195 44 1855 34 44 1856 223 48 1857 222 45 1858 61 45 1859 210 50 1860 209 46 1861 48 46 1862 197 51 1863 196 47 1864 35 47 1865 224 52 1866 223 48 1867 62 49 1868 211 53 1869 210 50 1870 49 50 1871 198 55 1872 197 51 1873 36 51 1874 193 41 1875 224 52 1876 63 52 1877 212 56 1878 211 53 1879 50 54 1880 199 57 1881 198 55 1882 37 55 1883 213 58 1884 212 56 1885 51 56 1886 200 59 1887 199 57 1888 38 57 1889 214 61 1890 213 58 1891 52 58 1892 201 62 1893 200 59 1894 39 60 1895 215 64 1896 214 61 1897 53 61 1898 202 66 1899 201 62 1900 40 63 1901 216 68 1902 215 64 1903 54 65 1904 203 70 1905 202 66 1906 41 67 1907 217 72 1908 216 68 1909 55 69 1910 204 74 1911 203 70 1912 42 71 1913 218 75 1914 217 72 1915 56 73 1916 205 37 1917 204 74 1918 43 74 1919</p>
        </triangles>
      </mesh>
    </geometry>
  </library_geometries>
  <library_visual_scenes>
    <visual_scene id="Scene" name="Scene">
      <node id="Circle" name="Circle" type="NODE">
        <matrix sid="transform">1 0 0 0 0 1 0 0 0 0 1 0 0 0 0 1</matrix>
        <instance_geometry url="#Circle-mesh" name="Circle">
          <bind_material>
            <technique_common>
              <instance_material symbol="CDRoundTargetMaterial-material" target="#CDRoundTargetMaterial-material">
                <bind_vertex_input semantic="UVMap" input_semantic="TEXCOORD" input_set="0"/>
              </instance_material>
            </technique_common>
          </bind_material>
        </instance_geometry>
      </node>
    </visual_scene>
  </library_visual_scenes>
  <scene>
    <instance_visual_scene url="#Scene"/>
  </scene>
</COLLADA>