<?xml version="1.0" encoding="utf-8"?>
<COLLADA xmlns="http://www.collada.org/2005/11/COLLADASchema" version="1.4.1" xmlns:xsi="http://www.w3.org/2001/XMLSchema-instance">
  <asset>
    <contributor>
      <author>Blender User</author>
      <authoring_tool>Blender 3.6.4 commit date:2023-09-25, commit time:13:24, hash:21bfc5e7fe3f</authoring_tool>
    </contributor>
    <created>2025-05-11T20:32:45</created>
    <modified>2025-05-11T20:32:45</modified>
    <unit name="meter" meter="1"/>
    <up_axis>Z_UP</up_axis>
  </asset>
  <library_effects>
    <effect id="LongsquareTargetMaterial-effect">
      <profile_COMMON>
        <newparam sid="Material_Base_Color-surface">
          <surface type="2D">
            <init_from>Material_Base_Color</init_from>
          </surface>
        </newparam>
        <newparam sid="Material_Base_Color-sampler">
          <sampler2D>
            <source>Material_Base_Color-surface</source>
          </sampler2D>
        </newparam>
        <technique sid="common">
          <lambert>
            <emission>
              <color sid="emission">0 0 0 1</color>
            </emission>
            <diffuse>
              <texture texture="Material_Base_Color-sampler" texcoord="UVMap"/>
            </diffuse>
            <index_of_refraction>
              <float sid="ior">1.45</float>
            </index_of_refraction>
          </lambert>
        </technique>
      </profile_COMMON>
    </effect>
  </library_effects>
  <library_images>
    <image id="Material_Base_Color" name="Material_Base_Color">
      <init_from>Material%20Base%20Color.png</init_from>
    </image>
  </library_images>
  <library_materials>
    <material id="LongsquareTargetMaterial-material" name="LongsquareTargetMaterial">
      <instance_effect url="#LongsquareTargetMaterial-effect"/>
    </material>
  </library_materials>
  <library_geometries>
    <geometry id="Cube_001-mesh" name="Cube.001">
      <mesh>
        <source id="Cube_001-mesh-positions">
          <float_array id="Cube_001-mesh-positions-array" count="120">-2 -2 0 -2 -2 1 -2 2 0 -2 2 1 2 -2 0 2 -2 1 2 2 0 2 2 1 -2 6 0 -2 6 1 2 6 0 2 6 1 -2 10 0 -2 10 1 2 10 0 2 10 1 -2 14 0 -2 14 1 2 14 0 2 14 1 -2 18 0 -2 18 1 2 18 0 2 18 1 -2 -6 0 -2 -6 1 2 -6 0 2 -6 1 -2 -10 0 -2 -10 1 2 -10 0 2 -10 1 -2 -14 0 -2 -14 1 2 -14 0 2 -14 1 -2 -18 0 -2 -18 1 2 -18 0 2 -18 1</float_array>
          <technique_common>
            <accessor source="#Cube_001-mesh-positions-array" count="40" stride="3">
              <param name="X" type="float"/>
              <param name="Y" type="float"/>
              <param name="Z" type="float"/>
            </accessor>
          </technique_common>
        </source>
        <source id="Cube_001-mesh-normals">
          <float_array id="Cube_001-mesh-normals-array" count="18">-1 0 0 1 0 0 0 0 -1 0 0 1 0 1 0 0 -1 0</float_array>
          <technique_common>
            <accessor source="#Cube_001-mesh-normals-array" count="6" stride="3">
              <param name="X" type="float"/>
              <param name="Y" type="float"/>
              <param name="Z" type="float"/>
            </accessor>
          </technique_common>
        </source>
        <source id="Cube_001-mesh-map-0">
          <float_array id="Cube_001-mesh-map-0-array" count="456">0.2222222 0.5555555 0.25 0.4444444 0.25 0.5555555 0.2777779 0.5555555 0.2500001 0.6666667 0.2500001 0.5555555 0.2500001 0.5555555 0.2777779 0.4444444 0.2777779 0.5555555 0.2500001 0.4444444 0.2777779 0.3333333 0.2777779 0.4444444 0 0.5555556 0.1111111 0.4444444 0.1111111 0.5555556 0.1111111 0.5555556 0.2222222 0.4444444 0.2222222 0.5555556 0.2777779 0.6666667 0.2500001 0.7777778 0.2500001 0.6666667 0.1111111 0.5555556 0 0.6666667 0 0.5555556 0.2222222 0.5555556 0.1111111 0.6666667 0.1111111 0.5555556 0.2222222 0.4444444 0.25 0.3333333 0.25 0.4444444 0.2222222 0.7777778 0.1111111 0.8888889 0.1111111 0.7777778 0.1111111 0.6666667 0 0.7777778 0 0.6666667 0.2222222 0.6666667 0.1111111 0.7777778 0.1111111 0.6666667 0.2222222 0.3333333 0.25 0.2222222 0.25 0.3333333 0.2222222 0.8888889 0.1111111 1 0.1111111 0.8888889 0.2222222 0.2222222 0.25 0.1111111 0.25 0.2222222 0.2777779 0.7777778 0.2500001 0.8888889 0.2500001 0.7777778 0.1111111 0.7777778 0 0.8888889 0 0.7777778 0.2777779 0.1111111 0.3055557 0 0.3055557 0.1111111 0.2222222 0.1111111 0.25 0 0.25 0.1111111 0.2777779 0.8888889 0.2500001 1 0.2500001 0.8888889 0.1111111 0.8888889 0 1 0 0.8888889 0.1111111 0.3333333 0.2222222 0.2222222 0.2222222 0.3333333 0.25 0.5555555 0.2222222 0.6666667 0.2222222 0.5555555 0 0.4444444 0.1111111 0.3333333 0.1111111 0.4444444 0.1111111 0.4444444 0.2222222 0.3333333 0.2222222 0.4444444 0 0.2222222 0.1111111 0.1111111 0.1111111 0.2222222 0.2500001 0.3333333 0.2777779 0.2222222 0.2777779 0.3333333 0 0.3333333 0.1111111 0.2222222 0.1111111 0.3333333 0.25 0.6666667 0.2222222 0.7777778 0.2222222 0.6666667 0.1111111 0.1111111 0.2222222 0 0.2222222 0.1111111 0.25 0.7777778 0.2222222 0.8888889 0.2222222 0.7777778 0.1111111 0.2222222 0.2222222 0.1111111 0.2222222 0.2222222 0.2500001 0.2222222 0.2777779 0.1111111 0.2777779 0.2222222 0.2777779 0.2222222 0.3055557 0.1111111 0.3055557 0.2222222 0.2500001 0.1111111 0.2777778 0 0.2777779 0.1111111 0 0.1111111 0.1111111 0 0.1111111 0.1111111 0.25 0.8888889 0.2222222 1 0.2222222 0.8888889 0.2222222 0.5555555 0.2222222 0.4444444 0.25 0.4444444 0.2777779 0.5555555 0.2777779 0.6666667 0.2500001 0.6666667 0.2500001 0.5555555 0.2500001 0.4444444 0.2777779 0.4444444 0.2500001 0.4444444 0.2500001 0.3333333 0.2777779 0.3333333 0 0.5555556 0 0.4444444 0.1111111 0.4444444 0.1111111 0.5555556 0.1111111 0.4444444 0.2222222 0.4444444 0.2777779 0.6666667 0.2777779 0.7777778 0.2500001 0.7777778 0.1111111 0.5555556 0.1111111 0.6666667 0 0.6666667 0.2222222 0.5555556 0.2222222 0.6666667 0.1111111 0.6666667 0.2222222 0.4444444 0.2222222 0.3333333 0.25 0.3333333 0.2222222 0.7777778 0.2222222 0.8888889 0.1111111 0.8888889 0.1111111 0.6666667 0.1111111 0.7777778 0 0.7777778 0.2222222 0.6666667 0.2222222 0.7777778 0.1111111 0.7777778 0.2222222 0.3333333 0.2222222 0.2222222 0.25 0.2222222 0.2222222 0.8888889 0.2222222 1 0.1111111 1 0.2222222 0.2222222 0.2222222 0.1111111 0.25 0.1111111 0.2777779 0.7777778 0.2777779 0.8888889 0.2500001 0.8888889 0.1111111 0.7777778 0.1111111 0.8888889 0 0.8888889 0.2777779 0.1111111 0.2777779 0 0.3055557 0 0.2222222 0.1111111 0.2222222 0 0.25 0 0.2777779 0.8888889 0.2777779 1 0.2500001 1 0.1111111 0.8888889 0.1111111 1 0 1 0.1111111 0.3333333 0.1111111 0.2222222 0.2222222 0.2222222 0.25 0.5555555 0.25 0.6666667 0.2222222 0.6666667 0 0.4444444 0 0.3333333 0.1111111 0.3333333 0.1111111 0.4444444 0.1111111 0.3333333 0.2222222 0.3333333 0 0.2222222 0 0.1111111 0.1111111 0.1111111 0.2500001 0.3333333 0.2500001 0.2222222 0.2777779 0.2222222 0 0.3333333 0 0.2222222 0.1111111 0.2222222 0.25 0.6666667 0.25 0.7777778 0.2222222 0.7777778 0.1111111 0.1111111 0.1111111 0 0.2222222 0 0.25 0.7777778 0.25 0.8888889 0.2222222 0.8888889 0.1111111 0.2222222 0.1111111 0.1111111 0.2222222 0.1111111 0.2500001 0.2222222 0.2500001 0.1111111 0.2777779 0.1111111 0.2777779 0.2222222 0.2777779 0.1111111 0.3055557 0.1111111 0.2500001 0.1111111 0.2500001 0 0.2777778 0 0 0.1111111 0 0 0.1111111 0 0.25 0.8888889 0.2500001 1 0.2222222 1</float_array>
          <technique_common>
            <accessor source="#Cube_001-mesh-map-0-array" count="228" stride="2">
              <param name="S" type="float"/>
              <param name="T" type="float"/>
            </accessor>
          </technique_common>
        </source>
        <vertices id="Cube_001-mesh-vertices">
          <input semantic="POSITION" source="#Cube_001-mesh-positions"/>
        </vertices>
        <triangles material="LongsquareTargetMaterial-material" count="76">
          <input semantic="VERTEX" source="#Cube_001-mesh-vertices" offset="0"/>
          <input semantic="NORMAL" source="#Cube_001-mesh-normals" offset="1"/>
          <input semantic="TEXCOORD" source="#Cube_001-mesh-map-0" offset="2" set="0"/>
          <p>1 0 0 2 0 1 0 0 2 6 1 3 11 1 4 7 1 5 7 1 6 4 1 7 6 1 8 5 1 9 26 1 10 4 1 11 6 2 12 0 2 13 2 2 14 3 3 15 5 3 16 7 3 17 10 1 18 15 1 19 11 1 20 2 2 21 10 2 22 6 2 23 7 3 24 9 3 25 3 3 26 3 0 27 8 0 28 2 0 29 15 3 30 17 3 31 13 3 32 8 2 33 14 2 34 10 2 35 11 3 36 13 3 37 9 3 38 9 0 39 12 0 40 8 0 41 19 3 42 21 3 43 17 3 44 13 0 45 16 0 46 12 0 47 14 1 48 19 1 49 15 1 50 12 2 51 18 2 52 14 2 53 21 4 54 22 4 55 20 4 56 17 0 57 20 0 58 16 0 59 18 1 60 23 1 61 19 1 62 16 2 63 22 2 64 18 2 65 25 3 66 31 3 67 27 3 68 0 0 69 25 0 70 1 0 71 4 2 72 24 2 73 0 2 74 1 3 75 27 3 76 5 3 77 30 2 78 32 2 79 28 2 80 27 1 81 30 1 82 26 1 83 26 2 84 28 2 85 24 2 86 24 0 87 29 0 88 25 0 89 33 3 90 39 3 91 35 3 92 28 0 93 33 0 94 29 0 95 29 3 96 35 3 97 31 3 98 31 1 99 34 1 100 30 1 101 39 5 102 36 5 103 38 5 104 35 1 105 38 1 106 34 1 107 34 2 108 36 2 109 32 2 110 32 0 111 37 0 112 33 0 113 1 0 114 3 0 115 2 0 116 6 1 117 10 1 118 11 1 119 7 1 120 5 1 121 4 1 122 5 1 123 27 1 124 26 1 125 6 2 126 4 2 127 0 2 128 3 3 129 1 3 130 5 3 131 10 1 132 14 1 133 15 1 134 2 2 135 8 2 136 10 2 137 7 3 138 11 3 139 9 3 140 3 0 141 9 0 142 8 0 143 15 3 144 19 3 145 17 3 146 8 2 147 12 2 148 14 2 149 11 3 150 15 3 151 13 3 152 9 0 153 13 0 154 12 0 155 19 3 156 23 3 157 21 3 158 13 0 159 17 0 160 16 0 161 14 1 162 18 1 163 19 1 164 12 2 165 16 2 166 18 2 167 21 4 168 23 4 169 22 4 170 17 0 171 21 0 172 20 0 173 18 1 174 22 1 175 23 1 176 16 2 177 20 2 178 22 2 179 25 3 180 29 3 181 31 3 182 0 0 183 24 0 184 25 0 185 4 2 186 26 2 187 24 2 188 1 3 189 25 3 190 27 3 191 30 2 192 34 2 193 32 2 194 27 1 195 31 1 196 30 1 197 26 2 198 30 2 199 28 2 200 24 0 201 28 0 202 29 0 203 33 3 204 37 3 205 39 3 206 28 0 207 32 0 208 33 0 209 29 3 210 33 3 211 35 3 212 31 1 213 35 1 214 34 1 215 39 5 216 37 5 217 36 5 218 35 1 219 39 1 220 38 1 221 34 2 222 38 2 223 36 2 224 32 0 225 36 0 226 37 0 227</p>
        </triangles>
      </mesh>
    </geometry>
  </library_geometries>
  <library_visual_scenes>
    <visual_scene id="Scene" name="Scene">
      <node id="Cube" name="Cube" type="NODE">
        <matrix sid="transform">1 0 0 0 0 1 0 0 0 0 1 0 0 0 0 1</matrix>
        <instance_geometry url="#Cube_001-mesh" name="Cube">
          <bind_material>
            <technique_common>
              <instance_material symbol="LongsquareTargetMaterial-material" target="#LongsquareTargetMaterial-material">
                <bind_vertex_input semantic="UVMap" input_semantic="TEXCOORD" input_set="0"/>
              </instance_material>
            </technique_common>
          </bind_material>
        </instance_geometry>
      </node>
    </visual_scene>
  </library_visual_scenes>
  <scene>
    <instance_visual_scene url="#Scene"/>
  </scene>
</COLLADA>